$MeshFormat
4.1 0 8
$EndMeshFormat
$PhysicalNames
4
1 1 "brake"
1 2 "conv"
1 3 "neumann"
2 4 "disc"
$EndPhysicalNames
$Entities
6 6 1 0
1 0.07000000000000001 0 0 0
2 0.15 0 0 0
3 0.15 0.01 0 0
4 0.14 0.01 0 0
5 0.08 0.01 0 0
6 0.07000000000000001 0.01 0 0
1 0.07000000000000001 0 0 0.15 0 0 1 3 2 1 -2
2 0.15 0 0 0.15 0.01 0 1 2 2 2 -3
3 0.14 0.01 0 0.15 0.01 0 1 2 2 3 -4
4 0.08 0.01 0 0.14 0.01 0 1 1 2 4 -5
5 0.07000000000000001 0.01 0 0.08 0.01 0 1 2 2 5 -6
6 0.07000000000000001 0 0 0.07000000000000001 0.01 0 1 2 2 6 -1
1 0.07000000000000001 0 0 0.15 0.01 0 1 4 6 1 2 3 4 5 6
$EndEntities
$Nodes
13 1132 1 1132
0 1 0 1
1
0.07000000000000001 0 0
0 2 0 1
2
0.15 0 0
0 3 0 1
3
0.15 0.01 0
0 4 0 1
4
0.14 0.01 0
0 5 0 1
5
0.08 0.01 0
0 6 0 1
6
0.07000000000000001 0.01 0
1 1 0 19
7
8
9
10
11
12
13
14
15
16
17
18
19
20
21
22
23
24
25
0.07400000000000055 0 0
0.07799999999998213 0 0
0.08199999999996696 0 0
0.08599999999996696 0 0
0.08999999999994855 0 0
0.09399999999993391 0 0
0.09799999999992742 0 0
0.101999999999915 0 0
0.1059999999999009 0 0
0.1099999999998943 0 0
0.1139999999998987 0 0
0.1179999999999133 0 0
0.1219999999999187 0 0
0.1259999999999263 0 0
0.1299999999999404 0 0
0.1339999999999567 0 0
0.1379999999999729 0 0
0.1419999999999891 0 0
0.1459999999999838 0 0
1 2 0 2
26
27
0.15 0.003333333333324959 0
0.15 0.00666666666665764 0
1 3 0 8
28
29
30
31
32
33
34
35
0.1472106067797176 0.01 0
0.1451641906347551 0.01 0
0.1436628551412306 0.01 0
0.1425614130701472 0.01 0
0.1417533496079006 0.01 0
0.1411605207046374 0.01 0
0.1407255968783943 0.01 0
0.1403626439155392 0.01 0
1 4 0 149
36
37
38
39
40
41
42
43
44
45
46
47
48
49
50
51
52
53
54
55
56
57
58
59
60
61
62
63
64
65
66
67
68
69
70
71
72
73
74
75
76
77
78
79
80
81
82
83
84
85
86
87
88
89
90
91
92
93
94
95
96
97
98
99
100
101
102
103
104
105
106
107
108
109
110
111
112
113
114
115
116
117
118
119
120
121
122
123
124
125
126
127
128
129
130
131
132
133
134
135
136
137
138
139
140
141
142
143
144
145
146
147
148
149
150
151
152
153
154
155
156
157
158
159
160
161
162
163
164
165
166
167
168
169
170
171
172
173
174
175
176
177
178
179
180
181
182
183
184
0.1395999999999984 0.01 0
0.1392000000000007 0.01 0
0.1388000000000008 0.01 0
0.1383999999999992 0.01 0
0.1379999999999991 0.01 0
0.1376000000000022 0.01 0
0.1372000000000053 0.01 0
0.1368000000000083 0.01 0
0.1364000000000077 0.01 0
0.1360000000000062 0.01 0
0.1356000000000067 0.01 0
0.1352000000000085 0.01 0
0.1348000000000069 0.01 0
0.1344000000000054 0.01 0
0.1340000000000081 0.01 0
0.1336000000000077 0.01 0
0.1332000000000061 0.01 0
0.1328000000000065 0.01 0
0.1324000000000096 0.01 0
0.1320000000000127 0.01 0
0.1316000000000157 0.01 0
0.1312000000000188 0.01 0
0.1308000000000219 0.01 0
0.130400000000025 0.01 0
0.1300000000000262 0.01 0
0.1296000000000247 0.01 0
0.1292000000000233 0.01 0
0.1288000000000264 0.01 0
0.1284000000000295 0.01 0
0.1280000000000325 0.01 0
0.1276000000000356 0.01 0
0.1272000000000387 0.01 0
0.1268000000000418 0.01 0
0.1264000000000448 0.01 0
0.1260000000000432 0.01 0
0.1256000000000417 0.01 0
0.1252000000000432 0.01 0
0.1248000000000463 0.01 0
0.1244000000000493 0.01 0
0.1240000000000521 0.01 0
0.1236000000000528 0.01 0
0.1232000000000536 0.01 0
0.1228000000000562 0.01 0
0.1224000000000578 0.01 0
0.1220000000000575 0.01 0
0.1216000000000566 0.01 0
0.1212000000000574 0.01 0
0.1208000000000581 0.01 0
0.1204000000000567 0.01 0
0.1200000000000569 0.01 0
0.1196000000000591 0.01 0
0.1192000000000622 0.01 0
0.1188000000000652 0.01 0
0.1184000000000683 0.01 0
0.1180000000000714 0.01 0
0.1176000000000745 0.01 0
0.1172000000000758 0.01 0
0.1168000000000752 0.01 0
0.1164000000000746 0.01 0
0.1160000000000754 0.01 0
0.115600000000076 0.01 0
0.1152000000000744 0.01 0
0.1148000000000749 0.01 0
0.1144000000000774 0.01 0
0.1140000000000804 0.01 0
0.1136000000000835 0.01 0
0.1132000000000866 0.01 0
0.1128000000000896 0.01 0
0.1124000000000927 0.01 0
0.1120000000000938 0.01 0
0.111600000000093 0.01 0
0.1112000000000926 0.01 0
0.1108000000000934 0.01 0
0.1104000000000937 0.01 0
0.1100000000000922 0.01 0
0.1096000000000906 0.01 0
0.1092000000000871 0.01 0
0.1088000000000833 0.01 0
0.1084000000000805 0.01 0
0.1080000000000783 0.01 0
0.1076000000000747 0.01 0
0.1072000000000732 0.01 0
0.1068000000000738 0.01 0
0.1064000000000727 0.01 0
0.1060000000000726 0.01 0
0.1056000000000734 0.01 0
0.1052000000000735 0.01 0
0.1048000000000722 0.01 0
0.104400000000073 0.01 0
0.1040000000000716 0.01 0
0.1036000000000682 0.01 0
0.1032000000000657 0.01 0
0.1028000000000632 0.01 0
0.1024000000000599 0.01 0
0.1020000000000585 0.01 0
0.1016000000000593 0.01 0
0.101200000000058 0.01 0
0.1008000000000581 0.01 0
0.1004000000000589 0.01 0
0.1000000000000587 0.01 0
0.09960000000005767 0.01 0
0.09920000000005832 0.01 0
0.09880000000005676 0.01 0
0.09840000000005318 0.01 0
0.09800000000005094 0.01 0
0.09760000000004815 0.01 0
0.09720000000004511 0.01 0
0.09680000000004399 0.01 0
0.09640000000004473 0.01 0
0.09600000000004316 0.01 0
0.09560000000004357 0.01 0
0.09520000000004432 0.01 0
0.09480000000004392 0.01 0
0.09440000000004313 0.01 0
0.09400000000004352 0.01 0
0.09360000000004197 0.01 0
0.09320000000003814 0.01 0
0.09280000000003615 0.01 0
0.09240000000003311 0.01 0
0.09200000000003032 0.01 0
0.09160000000002946 0.01 0
0.09120000000002992 0.01 0
0.09080000000002837 0.01 0
0.09040000000002903 0.01 0
0.09000000000002978 0.01 0
0.08960000000002913 0.01 0
0.08920000000002859 0.01 0
0.08880000000002873 0.01 0
0.08840000000002696 0.01 0
0.08800000000002309 0.01 0
0.08760000000002136 0.01 0
0.08720000000001807 0.01 0
0.08680000000001555 0.01 0
0.08640000000001494 0.01 0
0.08600000000001515 0.01 0
0.08560000000001375 0.01 0
0.08520000000001451 0.01 0
0.08480000000001525 0.01 0
0.08440000000001438 0.01 0
0.08400000000001408 0.01 0
0.08360000000001397 0.01 0
0.08320000000001193 0.01 0
0.08280000000000816 0.01 0
0.08240000000000661 0.01 0
0.08200000000000306 0.01 0
0.08160000000000078 0.01 0
0.08120000000000044 0.01 0
0.08080000000000039 0.01 0
0.08039999999999922 0.01 0
1 5 0 8
185
186
187
188
189
190
191
192
0.07963735608445989 0.01 0
0.07927440312160637 0.01 0
0.07883947929536483 0.01 0
0.07824665039210452 0.01 0
0.07743858692986265 0.01 0
0.07633714485878482 0.01 0
0.07483580936526653 0.01 0
0.07278939322029147 0.01 0
1 6 0 2
193
194
0.07000000000000001 0.006666666666675809 0
0.07000000000000001 0.003333333333342475 0
2 1 0 938
195
196
197
198
199
200
201
202
203
204
205
206
207
208
209
210
211
212
213
214
215
216
217
218
219
220
221
222
223
224
225
226
227
228
229
230
231
232
233
234
235
236
237
238
239
240
241
242
243
244
245
246
247
248
249
250
251
252
253
254
255
256
257
258
259
260
261
262
263
264
265
266
267
268
269
270
271
272
273
274
275
276
277
278
279
280
281
282
283
284
285
286
287
288
289
290
291
292
293
294
295
296
297
298
299
300
301
302
303
304
305
306
307
308
309
310
311
312
313
314
315
316
317
318
319
320
321
322
323
324
325
326
327
328
329
330
331
332
333
334
335
336
337
338
339
340
341
342
343
344
345
346
347
348
349
350
351
352
353
354
355
356
357
358
359
360
361
362
363
364
365
366
367
368
369
370
371
372
373
374
375
376
377
378
379
380
381
382
383
384
385
386
387
388
389
390
391
392
393
394
395
396
397
398
399
400
401
402
403
404
405
406
407
408
409
410
411
412
413
414
415
416
417
418
419
420
421
422
423
424
425
426
427
428
429
430
431
432
433
434
435
436
437
438
439
440
441
442
443
444
445
446
447
448
449
450
451
452
453
454
455
456
457
458
459
460
461
462
463
464
465
466
467
468
469
470
471
472
473
474
475
476
477
478
479
480
481
482
483
484
485
486
487
488
489
490
491
492
493
494
495
496
497
498
499
500
501
502
503
504
505
506
507
508
509
510
511
512
513
514
515
516
517
518
519
520
521
522
523
524
525
526
527
528
529
530
531
532
533
534
535
536
537
538
539
540
541
542
543
544
545
546
547
548
549
550
551
552
553
554
555
556
557
558
559
560
561
562
563
564
565
566
567
568
569
570
571
572
573
574
575
576
577
578
579
580
581
582
583
584
585
586
587
588
589
590
591
592
593
594
595
596
597
598
599
600
601
602
603
604
605
606
607
608
609
610
611
612
613
614
615
616
617
618
619
620
621
622
623
624
625
626
627
628
629
630
631
632
633
634
635
636
637
638
639
640
641
642
643
644
645
646
647
648
649
650
651
652
653
654
655
656
657
658
659
660
661
662
663
664
665
666
667
668
669
670
671
672
673
674
675
676
677
678
679
680
681
682
683
684
685
686
687
688
689
690
691
692
693
694
695
696
697
698
699
700
701
702
703
704
705
706
707
708
709
710
711
712
713
714
715
716
717
718
719
720
721
722
723
724
725
726
727
728
729
730
731
732
733
734
735
736
737
738
739
740
741
742
743
744
745
746
747
748
749
750
751
752
753
754
755
756
757
758
759
760
761
762
763
764
765
766
767
768
769
770
771
772
773
774
775
776
777
778
779
780
781
782
783
784
785
786
787
788
789
790
791
792
793
794
795
796
797
798
799
800
801
802
803
804
805
806
807
808
809
810
811
812
813
814
815
816
817
818
819
820
821
822
823
824
825
826
827
828
829
830
831
832
833
834
835
836
837
838
839
840
841
842
843
844
845
846
847
848
849
850
851
852
853
854
855
856
857
858
859
860
861
862
863
864
865
866
867
868
869
870
871
872
873
874
875
876
877
878
879
880
881
882
883
884
885
886
887
888
889
890
891
892
893
894
895
896
897
898
899
900
901
902
903
904
905
906
907
908
909
910
911
912
913
914
915
916
917
918
919
920
921
922
923
924
925
926
927
928
929
930
931
932
933
934
935
936
937
938
939
940
941
942
943
944
945
946
947
948
949
950
951
952
953
954
955
956
957
958
959
960
961
962
963
964
965
966
967
968
969
970
971
972
973
974
975
976
977
978
979
980
981
982
983
984
985
986
987
988
989
990
991
992
993
994
995
996
997
998
999
1000
1001
1002
1003
1004
1005
1006
1007
1008
1009
1010
1011
1012
1013
1014
1015
1016
1017
1018
1019
1020
1021
1022
1023
1024
1025
1026
1027
1028
1029
1030
1031
1032
1033
1034
1035
1036
1037
1038
1039
1040
1041
1042
1043
1044
1045
1046
1047
1048
1049
1050
1051
1052
1053
1054
1055
1056
1057
1058
1059
1060
1061
1062
1063
1064
1065
1066
1067
1068
1069
1070
1071
1072
1073
1074
1075
1076
1077
1078
1079
1080
1081
1082
1083
1084
1085
1086
1087
1088
1089
1090
1091
1092
1093
1094
1095
1096
1097
1098
1099
1100
1101
1102
1103
1104
1105
1106
1107
1108
1109
1110
1111
1112
1113
1114
1115
1116
1117
1118
1119
1120
1121
1122
1123
1124
1125
1126
1127
1128
1129
1130
1131
1132
0.07982185979181997 0.009678429855371774 0
0.08138470920130546 0.009631541612057556 0
0.08299788502057909 0.009646822451416929 0
0.08458588087796963 0.009594451316592728 0
0.08620000000001507 0.009653589838486036 0
0.08780000000002336 0.009653589838484465 0
0.08940000000002871 0.009653589838486111 0
0.09100000000002922 0.009653589838486387 0
0.09260000000003578 0.009653589838484125 0
0.09420000000004351 0.009653589838485809 0
0.09580000000004296 0.009653589838486937 0
0.09740000000004467 0.009653589838484338 0
0.09900000000005685 0.009653589838485768 0
0.100596417551265 0.009662910254288896 0
0.1022000000000591 0.009653589838485993 0
0.1038000000000689 0.009655311277523367 0
0.1054000000000732 0.009653589838486444 0
0.1070000000000742 0.009653589838484893 0
0.108600000000083 0.009677956355986195 0
0.110200000000093 0.00965358983848571 0
0.1118000000000935 0.009653589838486539 0
0.1134000000000852 0.009653589838490264 0
0.115000000000075 0.009656295896217418 0
0.1166000000000751 0.009653589838486293 0
0.1182006706757359 0.009654747942183826 0
0.1197858358402776 0.009668695986938159 0
0.1214000000000574 0.009653589838486416 0
0.1230000000000544 0.009653589838488736 0
0.1246000000000477 0.009653589838488012 0
0.1262000000000451 0.009653589838488064 0
0.1278000000000351 0.009653589838489364 0
0.1294000000000242 0.009653589838487043 0
0.1310288886426758 0.009667431099484397 0
0.132612817995303 0.009660990311522098 0
0.1342000000000063 0.009653589838487348 0
0.1357941454332655 0.009652423101040624 0
0.1374000000000037 0.009663672154504234 0
0.1390011182530622 0.009672771791331301 0
0.1405441203969669 0.009685807335201939 0
0.1421442456270775 0.009440121428850144 0
0.07868876503109616 0.009477514085032477 0
0.1444403577651706 0.008827220497159564 0
0.07688786589432367 0.009173159849739093 0
0.08220381737779209 0.009686063560566029 0
0.09820000000005344 0.009653589838482768 0
0.1046000000000727 0.009667105453507104 0
0.09340000000003928 0.009653589838485079 0
0.1078000000000771 0.009659174903297905 0
0.1030000000000647 0.009653589838484824 0
0.1094000000000891 0.009670251450770207 0
0.09658656803254791 0.009638381613730644 0
0.09980000000005801 0.009660877430350538 0
0.09180000000003015 0.009654008893511985 0
0.08380543995786517 0.009687206974252448 0
0.1014162536328753 0.009662973877768367 0
0.09020000000002981 0.009674675588486309 0
0.08700000000001747 0.009653589838484347 0
0.1110000000000926 0.009653589838486892 0
0.08540000000001424 0.009653589838486725 0
0.08860000000002796 0.009653589838485526 0
0.09500000000004441 0.009653589838486435 0
0.1062000000000711 0.009653589838485584 0
0.07220010172071165 0.004716988798890054 0
0.1403300870994666 0.002764279847684335 0
0.1159664224510313 0.002977355127635969 0
0.1239831254793642 0.002502433883334176 0
0.132221833109663 0.002792747388465593 0
0.07999999999997455 0.003464101615123209 0
0.08808834757529498 0.003216297435712503 0
0.09594858197832341 0.002646707203237692 0
0.1038440077050244 0.00290443683305466 0
0.1475838737948881 0.004448097544283143 0
0.1200511052786408 0.00263265658431024 0
0.1179391193654214 0.005621841697498639 0
0.09962882536591977 0.003084087375968647 0
0.0978406250560111 0.005674541152857178 0
0.1282264976913552 0.002935228042977531 0
0.1300608710835552 0.00562192792853314 0
0.09247872246459726 0.003201695046898032 0
0.09406088344738892 0.005621875265571014 0
0.1360160617573045 0.002624057778205163 0
0.138038680787322 0.005474029800736181 0
0.08374713685418164 0.002940073766410234 0
0.08208063024079665 0.005936844295985032 0
0.07399370464019742 0.008547262727650795 0
0.07651857263329631 0.003164703565690599 0
0.0780462470800054 0.005791641937776383 0
0.143408717246667 0.003044556737503276 0
0.1419322973996728 0.006044563823659914 0
0.1119546443399661 0.002653007292713506 0
0.1080529253988709 0.002706484508636897 0
0.1100608871484095 0.005621826657053441 0
0.1414569351562678 0.009364715918607021 0
0.1418373961953821 0.008640557469777434 0
0.1409814165820219 0.00866871461202119 0
0.1413331386505798 0.008009014619349804 0
0.140501222846511 0.007891654008934722 0
0.1402877756983348 0.008568945094884062 0
0.1397187016077224 0.008003473400119452 0
0.139800082520362 0.009682790916426735 0
0.1399133631106524 0.007115842974246237 0
0.1394100542302855 0.008523757298761295 0
0.1390031755777819 0.00822794923991161 0
0.138745406002678 0.008639059499465931 0
0.1383770343329034 0.008195846866804048 0
0.1382205445210533 0.009670917252138075 0
0.1379971591198979 0.008681068462993612 0
0.1377170827933683 0.008139016577001813 0
0.1374286685348634 0.00873062080831054 0
0.1370904090279654 0.008158212250406431 0
0.136632697652099 0.009677689106163671 0
0.1368588255015484 0.008711036662530756 0
0.1365036851797623 0.00822826225226303 0
0.1367361085554107 0.007548305924357802 0
0.1359582910509045 0.007721637814654812 0
0.135604357136212 0.008288642072658267 0
0.1350717287076556 0.007870855018900396 0
0.1350000000000082 0.009653589838486312 0
0.1353553233209581 0.006884341232623242 0
0.1343416896123706 0.007081775893692016 0
0.1343030977083973 0.007977778524216203 0
0.1335102720278845 0.007544363909682187 0
0.1332431880967741 0.008221752992410739 0
0.1326876237479327 0.00786844628756333 0
0.1334000000000076 0.009654384372976856 0
0.1324603924245339 0.008433806108125755 0
0.1319188108858421 0.008041356185674345 0
0.1317954058920187 0.009656242247977096 0
0.1319912123123749 0.007222597150159616 0
0.1312472636327219 0.007691350361091488 0
0.134651704367827 0.005911567777922025 0
0.131089894398844 0.008335363345078716 0
0.1305341557027212 0.008102409501528218 0
0.1301806518465757 0.00963876015985699 0
0.1423788183837975 0.007765644407850626 0
0.1303508231984383 0.008716272864686552 0
0.1298674930072522 0.008340143356246584 0
0.1298077603754248 0.007650943188767797 0
0.1292374698392285 0.007986670127510188 0
0.1286000000000291 0.009653589838490293 0
0.1290851794190198 0.007207296421202427 0
0.1284305164298446 0.007774492045706348 0
0.1282343226480062 0.006760417043256721 0
0.127504459581684 0.007532358823523805 0
0.1271414989062035 0.006325985762027561 0
0.1260797320290214 0.007085757942030682 0
0.126348875621405 0.008013100625355235 0
0.1252286397628959 0.007381840948775377 0
0.1255419259656746 0.008487102331555911 0
0.1254000000000444 0.009653589838486035 0
0.1283165640434211 0.008475769995373701 0
0.1291942174466517 0.008838873479915984 0
0.1338649327006318 0.008813410718057245 0
0.1273009761006982 0.008330809281126358 0
0.1270000000000413 0.009653589838488477 0
0.1250947252404981 0.006460206990186688 0
0.124238881768913 0.007277421019550455 0
0.1298676912132899 0.008903980108144896 0
0.1329952067109671 0.009008627192628025 0
0.1378003404357861 0.009067933602715884 0
0.1240403709529462 0.006103920021122395 0
0.1229754727858044 0.006955524428502067 0
0.1233648095282174 0.008005490248367723 0
0.1221771425439536 0.007781220715780396 0
0.1217673423667771 0.006955120115937746 0
0.1214101730951685 0.007729665465403076 0
0.1238000000000516 0.009653589838487329 0
0.1208796016710914 0.006950799606884172 0
0.1201916425617429 0.007536063788525636 0
0.1206735081003613 0.008498443984480325 0
0.1205637027170886 0.009604153130796423 0
0.1226669749826641 0.008648178691613379 0
0.1222000000000577 0.009653589838486763 0
0.1215390726366683 0.005653770724733363 0
0.1243660096509654 0.008212152637345082 0
0.1309513977889055 0.009097259669892136 0
0.1388419373460227 0.007453869031419117 0
0.1382183444336615 0.009052580731404282 0
0.1217232910889766 0.008456491947989283 0
0.119574957971147 0.006586208340315812 0
0.1189792927660375 0.007481947448413451 0
0.1195017035422141 0.008379673449574496 0
0.1190000000000642 0.009654467831952968 0
0.1370884749134246 0.009089782660259111 0
0.1390257691774306 0.009123161510861856 0
0.1398011965391831 0.009132606195757944 0
0.135861412501982 0.005770828012252851 0
0.1317645313313057 0.008733076370630989 0
0.1322503598601591 0.009083653138932864 0
0.1366614118088637 0.009144421365920932 0
0.1363754852851107 0.008801628922490458 0
0.1362445146099265 0.00924323441049533 0
0.1359731955106368 0.00901824237231123 0
0.1303106114911338 0.009192998981406665 0
0.1285123348250065 0.005256196517320887 0
0.1348425194428033 0.008526179850145052 0
0.1353321586872751 0.008994899096815015 0
0.1405879274180418 0.009042948204613124 0
0.146118932705315 0.008503469053333605 0
0.1448674585545162 0.007321843868158288 0
0.1356081763591107 0.009266610022942018 0
0.07570854117815914 0.008912370736896554 0
0.07520412456464348 0.007303467674585029 0
0.1430482559819998 0.009112663658709615 0
0.1268348960015382 0.004608064872691801 0
0.07787887503597128 0.00940346875650592 0
0.07835470383093376 0.008822835603723616 0
0.0790494424254531 0.008886672563933638 0
0.07888111153648861 0.008357806717347644 0
0.07950674956191767 0.008395829512425793 0
0.07922244497244456 0.007692337812621035 0
0.08010831610215899 0.007936378254481249 0
0.08040918125664205 0.008472845442069533 0
0.08085519896023129 0.008131938288586498 0
0.08064555849584294 0.009664262123226504 0
0.07984027916523338 0.006889396034324869 0
0.08117883306416193 0.008705501333094357 0
0.08153323733961448 0.008237248860600276 0
0.08174717071689677 0.008791756448187736 0
0.0820193081493799 0.008377962405316713 0
0.0781365611719655 0.007858474470711802 0
0.08204753972866903 0.007793681988494201 0
0.08274873341104833 0.007823279266029812 0
0.0828234233534914 0.008749543268650352 0
0.08319870627779265 0.008262776437526478 0
0.08331117799158061 0.007623287102767027 0
0.08393702520891516 0.007950814133026703 0
0.08396740425511251 0.00701504387390788 0
0.0847689128023182 0.007356847875443912 0
0.08487324422936789 0.006339846923942611 0
0.08578911085017725 0.007012429790947051 0
0.08595870238672504 0.007825204879133912 0
0.08669460758338637 0.007599023621973081 0
0.08676882578493161 0.008416459352889582 0
0.08735252861708258 0.008160360414735968 0
0.08765527629708779 0.007233563084993119 0
0.08842107177678235 0.007680969310083899 0
0.0885755760579484 0.006670024187723833 0
0.08948634011260242 0.007270547965999658 0
0.08969766407684809 0.006118408750602811 0
0.09059035372251437 0.006818207423126603 0
0.09036917067563477 0.008243014344185229 0
0.09137247700078041 0.00771512595938563 0
0.08933509373103819 0.008360023441580672 0
0.08839213193790713 0.008409389500361767 0
0.09115391409380118 0.008560498837534791 0
0.08403072400272175 0.008651688036729624 0
0.09175207454442443 0.006623493681088531 0
0.0924146790008397 0.007619747602853299 0
0.08608238255362669 0.008752410828317575 0
0.08506139265791762 0.008500613532898736 0
0.07989279896071681 0.009069278149912085 0
0.08615710927692351 0.005784463373218689 0
0.08744955474246376 0.008745541408666332 0
0.08061529049911693 0.009115638137737411 0
0.0920131825210137 0.008260090476738919 0
0.09303525660084314 0.008050443687685793 0
0.09327253326942769 0.007574534369976975 0
0.09366013295777348 0.00816880030360484 0
0.09415127865049588 0.007417385167199848 0
0.09443187214034156 0.008183816174083028 0
0.09498448280316314 0.007663007340640198 0
0.09551672896518376 0.008069210654898193 0
0.0958755686406319 0.007462059008942099 0
0.09639026438137328 0.007997138535877831 0
0.09602853021290503 0.00877264071784562 0
0.09514774491122074 0.008717558041907165 0
0.09427759962260877 0.00883631951509488 0
0.09347064178670866 0.008828653169287694 0
0.0926138226142664 0.008884307212668918 0
0.09686108770827144 0.007448383548263001 0
0.09733289603742745 0.007972291413435639 0
0.09692562631257351 0.008770677621823436 0
0.09640334140738666 0.006434946678676138 0
0.09776546260520422 0.007474722080062919 0
0.09893939793148072 0.006428003429074659 0
0.09836966675553738 0.008052433129772081 0
0.09781787646358212 0.008733249009232103 0
0.08327299568950138 0.00886834745267441 0
0.08759819929584542 0.005966571159087251 0
0.08294207689476747 0.009166327099900715 0
0.08248579977830876 0.009063643278414775 0
0.08334938385165605 0.009338780209638011 0
0.08370994509654565 0.009059733501733188 0
0.08133881733864667 0.00917239204025134 0
0.08173684571454166 0.009285344760218106 0
0.08101132878641105 0.009461467484370678 0
0.09321592718527034 0.006689420170938483 0
0.08348725052036006 0.005474642687668666 0
0.09090245736469549 0.005631172998003511 0
0.08267765751514346 0.009394299009695455 0
0.1409323749942183 0.009604168176089204 0
0.1394029415110632 0.009680859807471343 0
0.08820000000002561 0.009653589838485428 0
0.08800000000002578 0.009307179676971152 0
0.08760000000002235 0.009323682171521208 0
0.088400000000027 0.009307179676971563 0
0.08880122802694937 0.009306470675297463 0
0.08860010437136287 0.008922736387466173 0
0.0890051194490144 0.00896201291142491 0
0.08892377178774674 0.008557775744686838 0
0.08964729749871231 0.008925325477525069 0
0.08740000000001981 0.009656340254243207 0
0.08720000000001857 0.009326890989906704 0
0.08679896795763349 0.00930986904584589 0
0.08700000000001576 0.008960769515456194 0
0.0865050847689979 0.008876865066911883 0
0.1330021363325559 0.009655750207564422 0
0.09860000000005566 0.00965358983848469 0
0.09879901893421245 0.009306613258341239 0
0.09920081755492829 0.009306518855237615 0
0.09899998166181026 0.008959238227064174 0
0.09942786134218337 0.008956745690102871 0
0.09920919302332172 0.00853116658570964 0
0.09967345204657235 0.008552886301693229 0
0.09859779696277104 0.008959293532684209 0
0.09984821507311878 0.008975526443672855 0
0.1001201116653853 0.008605143722471372 0
0.09993260764874835 0.008050624578006278 0
0.1005439182000495 0.008204159745060219 0
0.1008685941537892 0.008735242583543891 0
0.1012212518552717 0.008256563024033702 0
0.1010161469968995 0.007557676389393416 0
0.1018655021809241 0.007813416309584716 0
0.1014654932215146 0.006700993733827377 0
0.1025617656775985 0.007005698153323679 0
0.1026553489743281 0.007899722220412813 0
0.1034559394494135 0.007465316047950038 0
0.1037458060645367 0.008285457946012657 0
0.1043235094847538 0.007821052709696552 0
0.1045721684058332 0.008397363206336812 0
0.1051865452831808 0.008084391554992632 0
0.1050175785341501 0.0070853362840727 0
0.105813260872794 0.007509192538801735 0
0.1059396182426069 0.006467774395169579 0
0.1070249268089726 0.006612298998588551 0
0.1069553599785144 0.007965259729427472 0
0.1076169791490331 0.00744380925220697 0
0.1078725831647297 0.008204744455001458 0
0.1084817850329801 0.007940549168595204 0
0.1052408124214046 0.008663339234876093 0
0.1086314002921185 0.008514077392923777 0
0.1091233915143123 0.008322364497153678 0
0.1013641875850224 0.008910664205523453 0
0.1071971806110246 0.008757032323506071 0
0.1030651325772142 0.008781557272807352 0
0.1077754486203079 0.006080233661440577 0
0.1092200926470863 0.008880095076493417 0
0.1097643181666822 0.008603897144260825 0
0.1097668899472114 0.007943579670130938 0
0.1102443184143085 0.008327801391987152 0
0.1104512945881899 0.007823494822479298 0
0.1112184696505331 0.007943611772020786 0
0.1111153501967294 0.007187483209837675 0
0.1118698621728267 0.007542997189332463 0
0.1120074674316782 0.006603536637764734 0
0.1127742787622862 0.007359081321816461 0
0.1128260788038827 0.008095287121559427 0
0.1136461513647658 0.007890412774738348 0
0.1126000000000913 0.009653589838488647 0
0.1138306961456315 0.006897685746186081 0
0.1146314521763515 0.007646285795416067 0
0.1149144703351486 0.006488246896802009 0
0.1158334630736435 0.007377998263579928 0
0.1142929577469427 0.008626329558082603 0
0.1142000000000788 0.009653589838488724 0
0.1119361967454944 0.008534233291238456 0
0.1109429704147029 0.008759893525573137 0
0.1102955481637234 0.009031029200792077 0
0.1039791715257593 0.008941298762266446 0
0.1080286761446813 0.008995245016806075 0
0.1141746208962153 0.005715634181419314 0
0.1151049717598167 0.008302921792569584 0
0.1158000000000753 0.00965358983848672 0
0.116123436705887 0.008261830915803807 0
0.1149164739488392 0.008954926028519617 0
0.1022475308371819 0.005769114153453573 0
0.1009271188291122 0.005604537115146171 0
0.1096317286095351 0.009085502529129295 0
0.1010182897132774 0.009196597777313058 0
0.1047313890948712 0.009060585459858175 0
0.1134925411803106 0.008688720807391191 0
0.1060854861578806 0.008441186953304187 0
0.1162538539501959 0.006075318998627432 0
0.1169817368881564 0.007013249580803238 0
0.1006173773728446 0.009099825303772504 0
0.1087928272974495 0.009128749996028605 0
0.1021408673062778 0.008444705362687169 0
0.1046017370406457 0.006059832660733516 0
0.1056592273311615 0.004873200392544591 0
0.1099556701648832 0.007033886432975912 0
0.1015326757582333 0.004187062768092628 0
0.09840000000005678 0.009307179676968213 0
0.09800000000005138 0.009325902982578394 0
0.09780000000004826 0.00965671038941875 0
0.09760000000004483 0.009328432799888877 0
0.09719224824388024 0.009310759101645305 0
0.09737762049801751 0.008973018868023826 0
0.09674033992184344 0.009203845390350421 0
0.1386178112451007 0.009671978223879059 0
0.1082000000000797 0.009667326257150576 0
0.1034000000000671 0.009653876744991569 0
0.1036031386517388 0.009252106629137459 0
0.1031830409036926 0.009326652343113183 0
0.1027971734840004 0.009328443620599831 0
0.102599528914051 0.009657133829090368 0
0.1023994503997145 0.009311314332676662 0
0.1019999084000015 0.009307868786257098 0
0.1026773617794243 0.008988036774259715 0
0.09300000000003757 0.009653589838485055 0
0.09321177363115005 0.009283928467372492 0
0.0936137359030042 0.009276109538181729 0
0.09280426604092747 0.009289328939669191 0
0.09239511845428872 0.00928880334287633 0
0.09213216044747941 0.008820041449768388 0
0.09219918640907432 0.009651016013667538 0
0.1297923252391488 0.009655318662678736 0
0.1296000000000234 0.009307179676972973 0
0.1292020324541044 0.009243793119724099 0
0.1090000000000861 0.009681634954150999 0
0.1098000000000908 0.009676172713647825 0
0.1258000000000442 0.009653589838486491 0
0.1260000000000461 0.009307179676972623 0
0.1264010385408259 0.009306580075177019 0
0.1262012136271923 0.008947480052283602 0
0.1266025218692772 0.008956558232165981 0
0.1256000000000458 0.009307179676971627 0
0.1252000000000449 0.009307179676973906 0
0.1338000000000076 0.009653722260902742 0
0.1336000000000098 0.009307179676973308 0
0.1074000000000755 0.009654520682620469 0
0.1076190856508926 0.009262421967204644 0
0.1071879847735 0.009322053268144316 0
0.1067979974623101 0.009322381374764059 0
0.1050000000000728 0.009669358056011166 0
0.1052128325275459 0.00933844809762123 0
0.1056021387546509 0.009320735614973923 0
0.09619427271766524 0.009653069290708308 0
0.09598602282077864 0.009334656825406934 0
0.09558865632288713 0.009327285685532555 0
0.0994001362592028 0.009654694300174542 0
0.08659982799295186 0.009654038066631366 0
0.08640000000001477 0.009307179676971932 0
0.08599471074646797 0.009327141520139876 0
0.09961283837159168 0.009317544657948863 0
0.1042000000000717 0.009657850786533797 0
0.1043896244481554 0.009285745378892617 0
0.1154000000000751 0.00965404084810836 0
0.1155989435243789 0.009306644888715156 0
0.1160008803964903 0.009306480589068822 0
0.1158000000000773 0.008960769515459601 0
0.1162019742175716 0.00897786881350302 0
0.1153751587939856 0.008967740905935037 0
0.1151817627112381 0.009310510765141958 0
0.1170000149459332 0.009653581209490772 0
0.1168000024910516 0.009308372645164575 0
0.11720242761627 0.009307529373746615 0
0.1169895024543009 0.008952188624950128 0
0.1174125030684148 0.008950160298774993 0
0.1171554061034631 0.008499489072540164 0
0.1176390573284312 0.008545119286004127 0
0.1176038399269487 0.009307456082526505 0
0.1166679332952272 0.008538886520076897 0
0.1174472293529784 0.008070487108543299 0
0.1180106690397846 0.008162257174041582 0
0.1183608109962099 0.008603123307022001 0
0.1174010470815627 0.009654463639628 0
0.1065996662437781 0.009656123454784117 0
0.1063989824103332 0.009308864096749823 0
0.1065971552494644 0.008977867336125139 0
0.1062135806650021 0.008937653068202503 0
0.08579911845775667 0.009656916812347604 0
0.08559368228050013 0.009314114898436388 0
0.08520590093538508 0.009312350376686152 0
0.08536462101745264 0.008916318810826589 0
0.08492782927388542 0.008980502533922338 0
0.0845447145968295 0.008662916051402467 0
0.08459409452579306 0.009140740180167599 0
0.1018026936721858 0.009655268696581133 0
0.09140000000002987 0.00965365968099007 0
0.09159614416831721 0.009309906380398322 0
0.09119935736141113 0.009307645767958747 0
0.09075553560610485 0.009308302725345679 0
0.1001926140550613 0.009675810573088372 0
0.0946000000000442 0.009653589838485969 0
0.09478496609145326 0.009319267337717228 0
0.09441042761904017 0.009291465499081306 0
0.09401696052412989 0.009273465077969539 0
0.09384645379047245 0.008947815832979768 0
0.09380511607121705 0.009642792382187026 0
0.1346000000000064 0.009653589838486337 0
0.1344026433630293 0.009308705823326394 0
0.1347949132740479 0.009310625215023684 0
0.1351836807669466 0.009309871768194814 0
0.08980000000002926 0.009657104130152867 0
0.0900167237518389 0.00928398096571312 0
0.1114000000000928 0.00965358983848655 0
0.1116000000000927 0.009307179676972694 0
0.1120000000000932 0.009307179676973525 0
0.08900020467118189 0.009653471671540169 0
0.08918743016534567 0.009316137574239759 0
0.08960000000002813 0.009307179676971752 0
0.09006919141184937 0.008916446227908452 0
0.0904013955335829 0.009111102937652854 0
0.09041521458973281 0.008732820236655904 0
0.1112000000000922 0.009324902956160329 0
0.1107993444271941 0.009324670235944257 0
0.1113122877310833 0.008986302715283064 0
0.08418369009097978 0.009667255758385495 0
0.1218000000000575 0.009653589838486448 0
0.1220000000000578 0.00930717967697315 0
0.1224000000000575 0.009312764960099586 0
0.1222572531325287 0.008955162503195028 0
0.1216000000000578 0.00930717967697307 0
0.121198914370117 0.009306552888234305 0
0.1214000000000577 0.008960769515458697 0
0.1209540818488634 0.008937239228461197 0
0.1211460971299171 0.008406418940537633 0
0.1204519823806638 0.008952973671515756 0
0.1201096846044302 0.00843608301303754 0
0.1199717520161748 0.009010785468874637 0
0.1193200084731022 0.00899783453071067 0
0.1202329094857592 0.009332057348082011 0
0.1353976670932243 0.009647082455110628 0
0.1209937695145727 0.009645245922415032 0
0.1207792433941465 0.009281208208840128 0
0.1010157477826862 0.009610515139429017 0
0.09539810938718447 0.009656940839913242 0
0.09059258926770858 0.00967837705488149 0
0.1250000000000453 0.009653589838487343 0
0.08500000000001522 0.009653589838487337 0
0.1164004761842233 0.009311306279719791 0
0.1162002260968356 0.00965416109096027 0
0.1058003564591684 0.009655849161486745 0
0.1234000000000526 0.009653589838487841 0
0.1235989396481564 0.009306567482522544 0
0.1240008836266286 0.009306465450113315 0
0.1237999987333363 0.008959657061822385 0
0.1233976358404945 0.008956394603147849 0
0.1242021603218199 0.008966290965721234 0
0.119397639306764 0.009657131855605416 0
0.1196064262825067 0.009264781528162793 0
0.1122000000000929 0.00965358983848705 0
0.1106000000000941 0.009653589838487698 0
0.1248000000000455 0.009308378372654514 0
0.1249989235296663 0.008965364605028283 0
0.1226000000000564 0.009654520719008955 0
0.1314021664927758 0.009654947703023657 0
0.1316414565064375 0.00923588739833549 0
0.1146000000000765 0.009656746905839545 0
0.1143887517942058 0.009316906067284794 0
0.1139981252991003 0.009308800742028122 0
0.1290003387423727 0.009643025412280766 0
0.1274000000000379 0.00965358983848864 0
0.1272000000000409 0.009308354228165531 0
0.1370244484419194 0.009690954185244571 0
0.1282000000000323 0.009653589838489011 0
0.1280000000000344 0.009307179676977065 0
0.1242001472711463 0.009653470800677379 0
0.1130000000000889 0.009653589838488524 0
0.1128009973893042 0.009306603834045208 0
0.1124001662316285 0.009307083703152357 0
0.1126000000000949 0.008960769515461242 0
0.1130723989586039 0.008968723273523301 0
0.1378097678251493 0.009682831623541388 0
0.1016134275145164 0.009310171499041998 0
0.1137996875499188 0.009653860015998293 0
0.1186000000000667 0.009653589838487436 0
0.1187964212690521 0.009310270183997806 0
0.118400211862972 0.00931345747509274 0
0.09518025472501801 0.00933249018574964 0
0.1306108192704432 0.009623067038408283 0
0.1322095945351932 0.009665318201431787 0
0.09698652603306757 0.009634429324035118 0
0.1228000000000559 0.009315049683055431 0
0.1266001730901736 0.009653489904854786 0
0.1231994292481444 0.009308858855874957 0
0.1276000000000373 0.009307375435510769 0
0.1278000000000352 0.008958189479233488 0
0.1244003799071252 0.009308736707373647 0
0.106002509714883 0.009307414448298447 0
0.126800000000043 0.00930717967697516 0
0.1340139060403049 0.009284422451887125 0
0.133402408854004 0.008849104528850182 0
0.1288000000000286 0.009307179676983171 0
0.1284000000000323 0.009307179676978011 0
0.1135996354748931 0.009317927487083136 0
0.1132121719705112 0.009320633234196211 0
0.0820920523839985 0.009059174260711997 0
0.1362105852367949 0.009617086473724957 0
0.1328194765555852 0.009325220904455981 0
0.1178015969564102 0.009654361771662668 0
0.1180017449580919 0.009314613049456093 0
0.1310211607413213 0.006569283929835809 0
0.132378247090071 0.006209985798695871 0
0.1218469637561935 0.008927020748699298 0
0.1022500002501317 0.008928071071591208 0
0.1121893938295833 0.008940210615760516 0
0.1117281057129627 0.00892884456719641 0
0.1257905232655108 0.0089257289684356 0
0.1253918300906081 0.008945374853629012 0
0.1018483882537926 0.008909630024562963 0
0.08020848664014942 0.009676798995895394 0
0.1281860940072654 0.008934682899302052 0
0.1279368962628525 0.008621055797784832 0
0.12858368901267 0.008912186065716001 0
0.1273991366046688 0.008971004779090862 0
0.1092000000000916 0.009307179676969606 0
0.08816645911057554 0.008910748397614705 0
0.08773708870120181 0.008984028627666469 0
0.1178039951476422 0.008965790620481418 0
0.09954265829627648 0.005022838470826235 0
0.1155859994154899 0.008557892355021329 0
0.1332000000000069 0.009311946883913966 0
0.1390508715400655 0.006284363305767246 0
0.09198324574815681 0.00928298376475842 0
0.1058000000000726 0.008967794909892112 0
0.1165784317816467 0.008962874137648982 0
0.1229751387802138 0.008970341723499194 0
0.1346036922973885 0.00895034493776797 0
0.09816725146174246 0.0089988890084463 0
0.08180805873760762 0.009665678972319524 0
0.1192000000000628 0.009312447637765809 0
0.1246011701717644 0.008966061471906678 0
0.1247447528366451 0.008571982103360269 0
0.1270000000000421 0.008967816822581801 0
0.1268529866968216 0.008603313558984556 0
0.1401780086381411 0.009685122892003495 0
0.07945457323789401 0.009679950673164709 0
0.07910629344050292 0.009705483607721284 0
0.07965820181071875 0.009357555103774531 0
0.1061647058985713 0.002660944650709852 0
0.1260186275499316 0.008505705472292206 0
0.08984229839322073 0.00450558151160046 0
0.1099904625166851 0.009309935442916396 0
0.1084031250837276 0.009313878691198154 0
0.09301374817242286 0.00896015057199607 0
0.1376666962729886 0.006818945114777253 0
0.138824378779349 0.009376648642365476 0
0.1039943869251588 0.009358462566870738 0
0.1035168250572193 0.008813716903372704 0
0.104451718287089 0.008830726755322401 0
0.130685079118966 0.009273648919995629 0
0.09139684997138602 0.008958948018559338 0
0.0909989736263099 0.008976348407682496 0
0.1326049760684342 0.008945131770685431 0
0.09637906827326984 0.009319264615059334 0
0.09645428221970902 0.008931575870529705 0
0.1147699165365472 0.009315853351098448 0
0.1335461736748135 0.006434891000307537 0
0.1333309786362444 0.004832057992432442 0
0.1341320377849566 0.002881636230185029 0
0.1403826518921037 0.005999667589536296 0
0.1104124269592808 0.009346201529064294 0
0.08265879159926003 0.007032047383226223 0
0.08040366796380556 0.00935852693282686 0
0.1312218578961116 0.00933043029402685 0
0.131314138967949 0.008860506673008608 0
0.0816095296098501 0.006925995020485883 0
0.1033962760258025 0.006319123113710451 0
0.1320573651064757 0.00933381956323538 0
0.1124769388785533 0.008531035677163989 0
0.1168402035119736 0.007880449668218582 0
0.07677052452926815 0.007867688358351365 0
0.1141652979258602 0.008959609583396207 0
0.1137586261420206 0.008973459515070621 0
0.1399903682527973 0.009389715573692559 0
0.1080101773758917 0.00937960936713147 0
0.1076111742691563 0.008828450528174579 0
0.1236017430006 0.008544267513058718 0
0.09174190256038291 0.008996312984332257 0
0.09163508109914061 0.008551836287719886 0
0.1201639837005655 0.009670183067685783 0
0.08004368578641176 0.009351843856130179 0
0.1409491902842829 0.007050004144467164 0
0.1249724137841816 0.004915743172081228 0
0.1185972721446789 0.008962330204316794 0
0.118977247808573 0.008976059171635971 0
0.1187780454984592 0.008591690856448699 0
0.08074698969498376 0.007270452262060939 0
0.08078581409359011 0.005713027938848211 0
0.1000000000000589 0.009350905228154769 0
0.08340804129258098 0.00969335489332818 0
0.09460769868821484 0.008986906118165237 0
0.1299568398523727 0.009337571741510155 0
0.1113307559714293 0.008497961426950215 0
0.07185183477321955 0.008266667277247541 0
0.09260444155146257 0.005143911061664744 0
0.1342569111292858 0.008992719935632663 0
0.1342685367976848 0.00860175385697183 0
0.08569175846043078 0.008454542195162623 0
0.0839634474746213 0.009364833385521522 0
0.1294861581390138 0.008947448561818068 0
0.1222386268840596 0.008495949792607906 0
0.1480178052201722 0.008390291919903765 0
0.1182096878237385 0.006900023391283363 0
0.1231514281870719 0.008556924256123985 0
0.1362852493030237 0.006727272387281985 0
0.1002332278709087 0.007526380136736211 0
0.08486274112260969 0.009336326849171231 0
0.1087526665612012 0.0067846681185092 0
0.0853022506190407 0.007876480928805222 0
0.0982629196654782 0.008604039182588173 0
0.1434871099547874 0.006555751756872662 0
0.1450340048026791 0.005155905930295886 0
0.1349668362812313 0.008979916597412417 0
0.07935361841366681 0.005469643948424434 0
0.1056755087897248 0.008519544522197423 0
0.119535263897164 0.004835364757329285 0
0.1002288363634138 0.009091879120829019 0
0.0786808745050392 0.006766180576399793 0
0.1275689419766008 0.008612320216821697 0
0.1278430590658502 0.008224467693389456 0
0.09873136934423628 0.008508851278633009 0
0.09894865799649916 0.007946937013979782 0
0.09944268092545561 0.007410976175970559 0
0.1240105931499073 0.008604115198027253 0
0.1264288526695949 0.008576315122307771 0
0.1250213464039278 0.008089364283865952 0
0.07641132895827758 0.006145519443523591 0
0.130473896372679 0.007383069090640869 0
0.08576826447873512 0.008979092027211335 0
0.1360218716677701 0.008507036874090906 0
0.1229422276795436 0.004753020698250157 0
0.1219790257595825 0.002804475458081293 0
0.1092126576702488 0.007564333632468323 0
0.1460088569834271 0.002863045375748957 0
0.1380339767768569 0.009362834094409581 0
0.1396041011105438 0.009400236814758456 0
0.1315400445899375 0.004990344034929119 0
0.13022717687877 0.003916061171611866 0
0.07924374154108284 0.009347468548311325 0
0.1072739234237478 0.004509080496424187 0
0.1182001551788424 0.008991864404789411 0
0.1294349706255445 0.00855522191785312 0
0.08896068748681996 0.008018527399000323 0
0.1048000000000724 0.009388273367100628 0
0.1394178342745247 0.009037360303230539 0
0.1099781258256372 0.008940444350072596 0
0.08204629383790754 0.009391962495803399 0
0.108486928350402 0.008898856112207261 0
0.1081854245423446 0.008563653778951392 0
0.122619873379104 0.009040299512292523 0
0.1004676983774703 0.008764441971165247 0
0.08458925281235283 0.008150185009106536 0
0.08095844722143351 0.009127955187658797 0
0.1054347146097187 0.008969723116389383 0
0.07294724994065403 0.002636027624463952 0
0.1016880394362577 0.008466995785278401 0
0.1403573525238887 0.009378817099843817 0
0.1359437998148358 0.009354998094745361 0
0.1324635950418553 0.009347445298015048 0
0.1392030152463036 0.009398395457816089 0
0.09536254372773324 0.009006877450986392 0
0.09555752232231901 0.0086079079916312 0
0.1350715089869114 0.004520621380586218 0
0.1409309303906311 0.009212729222358398 0
0.1401715012761728 0.009056788095505584 0
0.1185340066875413 0.008174042422932525 0
0.1260033865912731 0.002992293994216947 0
0.09575652985700302 0.008999859085358001 0
0.1436444001280543 0.007916624837750149 0
0.1328055579176323 0.007024524996883134 0
0.1050619263327079 0.009014427323301495 0
0.1048740933041811 0.008675138922447935 0
0.09480711689561019 0.006621582017211911 0
0.09577951141320164 0.005089817573462582 0
0.1041769296833594 0.006918546481433505 0
0.1145470525195106 0.008951210699879976 0
0.08784882400431306 0.008551747777641994 0
0.08980440525816796 0.008524661110462937 0
0.1007660468841355 0.009388255430455553 0
0.1376000000000034 0.009403042387401687 0
0.1374425499491573 0.009129585369668345 0
0.07303576516478129 0.006683698865651636 0
0.1130066377975849 0.006143928305539453 0
0.1117093473878281 0.005004725512967664 0
0.1260550951627366 0.005734126295010412 0
0.1469370125129284 0.006747712497105388 0
0.07950517330083211 0.008977635256241311 0
0.08137398115039414 0.007611489096094328 0
0.1199246897664043 0.009364850231127464 0
0.1026705850864644 0.008557104368783271 0
0.1109697444659057 0.006290291690119886 0
0.1394765316614842 0.004840306265265471 0
0.07438619049706072 0.005108400995467477 0
0.08230660912042613 0.008728015638798969 0
0.1096044382252983 0.009409808362686666 0
0.08971237315554823 0.007983685590924891 0
0.09862051960513726 0.007320971632007209 0
0.1004002153711299 0.009378264318431518 0
0.08258655491459371 0.009715558847375932 0
0.138421401635622 0.00936159632097573 0
0.1386427448358886 0.009024471686101501 0
0.0903389579864341 0.002315332863370543 0
0.1063998601721921 0.008623025436169229 0
0.1068307258964748 0.008554337143182883 0
0.125706524555476 0.007927145267312561 0
0.1479468727034478 0.001996829940954574 0
0.1134270747452679 0.009053892863452892 0
0.1139071296988585 0.008538950520361119 0
0.084072519588691 0.009069625862769784 0
0.09736135914334187 0.00850342623455592 0
0.1380981844645245 0.003535142029127507 0
0.117662339300571 0.007503171620244505 0
0.1251397557653044 0.008611837635487887 0
0.1087456188399534 0.005081347558555327 0
0.1406778144755654 0.009384381205575627 0
0.08588101362621922 0.002848126746428399 0
0.08519796478761428 0.004660794346565026 0
0.1196097271298638 0.008792320348500793 0
0.09436790101076381 0.003900115578449921 0
0.1291573976331218 0.006206896462543048 0
0.1379957798930937 0.007638407889879214 0
0.1374412153085653 0.007660577551284502 0
0.08430081766558026 0.009326312694284812 0
0.1002238177245211 0.006607343635853518 0
0.1154558646262377 0.008029385824478144 0
0.1034205615616931 0.004899480898573057 0
0.1166908467249648 0.004739986320799576 0
0.115253988895045 0.005051983800254128 0
0.1137236659667956 0.003935233460075719 0
0.09068377619559539 0.008996125550806745 0
0.1070000000000762 0.009037106111047409 0
0.1100147367684702 0.003799436933444882 0
0.07754885695242554 0.006890646245771031 0
0.1012931702840984 0.009354264010019523 0
0.08933895276159187 0.008723983226233096 0
0.097425553638704 0.006729070284608499 0
0.08201680528481164 0.003921448384005891 0
0.09779003368494329 0.003586331962725389 0
0.09506723961053301 0.008304711200204935 0
0.09474739990139777 0.008649139291961466 0
0.09687047722821214 0.008203591958891742 0
0.08628356025634971 0.008320750990731443 0
0.104172943378782 0.008598895274547266 0
0.09940688760155662 0.008143763331198643 0
0.07845279095496066 0.004040359926684173 0
0.107354553256155 0.008275513816193179 0
0.1368804273304429 0.009384344570843599 0
0.1227624091519618 0.008073881355499241 0
0.1130422273633579 0.0085312316148631 0
0.1321615894072574 0.00870787624193357 0
0.08677886066068408 0.006719210206043838 0
0.1191897584298835 0.008655099777447384 0
0.1190800607414225 0.008180552572572422 0
0.1329036888212529 0.008556838707044736 0
0.1180408489631306 0.003973431979981711 0
0.082355469803434 0.009362946571337575 0
0.08797287246547668 0.008066448819997917 0
0.1308181572867689 0.008679384285712766 0
0.1337654060308961 0.008334694088364731 0
0.1031849395348627 0.008300479126556471 0
0.08935575997493848 0.009046927773278915 0
0.126855201215402 0.008087409672738181 0
0.08072625746978135 0.009355157083173001 0
0.0802770995512601 0.008970474099000428 0
0.07994988645558793 0.008637073452355065 0
0.08100303181367084 0.009766041090419302 0
0.1238741866692493 0.00802937479623219 0
0.1101890820829966 0.008703659266417387 0
0.1105518579178758 0.008755218200115576 0
0.1107899444928399 0.008351330189854358 0
0.1146736505376163 0.008465301825670067 0
0.09130153346936037 0.004172794564625677 0
0.09643658864664328 0.008504715816636338 0
0.09254953700611669 0.008368036176885127 0
0.1160244224773063 0.008689396708453449 0
0.07834551664786021 0.00231170856640624 0
0.1151324482875647 0.00865847413588363 0
0.09039753966177323 0.009425528607526443 0
0.07760570609249247 0.008625125407806361 0
0.1088000000000826 0.009434422241179987 0
0.1414730912336521 0.00459854289281871 0
0.1243849372262204 0.008664120475272102 0
0.1288728369793675 0.008507791552677148 0
0.1210245991832857 0.004134846124522452 0
0.08252188829134899 0.008313425906171752 0
0.1267599829425904 0.007425962010848317 0
0.11171299963101 0.008124287073450198 0
0.08618700762953208 0.00905865698430554 0
0.0884740199362985 0.005175749271074736 0
0.1058474350195764 0.00808873288796136 0
0.09084606223302617 0.008113209514002621 0
0.1352470283198287 0.008550069485240203 0
0.1289124314582124 0.009011327236664694 0
0.08739732868874445 0.009068182542643381 0
0.08364725153465384 0.009428781792894671 0
0.1014183716757545 0.002122091838373429 0
0.09394623869677203 0.008560731053346959 0
0.08712268120707209 0.008583275034298139 0
0.08704203421863344 0.00457761258172156 0
0.1306232137768425 0.008991912944338749 0
0.13838624784325 0.008765103762424948 0
0.08359696643792748 0.008564539451871805 0
0.1067346288853593 0.005708517588833496 0
0.09305718985635519 0.008543398520354739 0
0.09616918615964649 0.009078704684592133 0
0.1122097136147665 0.008102631687709078 0
0.119572890364499 0.007766754768739891 0
0.1431851917070968 0.004990730611103339 0
0.1299343776041869 0.006773236170253848 0
0.1236377026980933 0.007550225866206762 0
0.0978183634450952 0.008223360174941137 0
0.1356311312801389 0.008770916654009605 0
0.1088594790135572 0.008790840084367299 0
0.1372280834089233 0.009407891201260163 0
0.1205069594944145 0.00929259808980858 0
0.1315478402832712 0.008343990820554552 0
0.09596753386150937 0.008235612120971878 0
0.09494141463982714 0.009008494498517958 0
0.08071567509214096 0.008754058748024502 0
0.09779254968468765 0.009071898533633901 0
0.1030035631028968 0.009089794133757627 0
0.1319750604423271 0.009018862542613658 0
0.1398011772710372 0.008720488398043146 0
0.1109687618441935 0.009100032810144083 0
0.09074451856901669 0.008603669481811297 0
0.1163192396955278 0.00868617141909723 0
0.09037396153640108 0.00763197679523737 0
0.114230268304907 0.008233456094853641 0
0.1063756857434588 0.008080187729037522 0
0.10662097179923 0.007346420440538638 0
0.1106618182878284 0.009052840916938903 0
0.1182791991235346 0.007644288411383086 0
0.1180029375381821 0.008653630958467709 0
0.1369826736353822 0.005961105449669709 0
0.1207351178604519 0.007926245799811396 0
0.09815800880997577 0.006693260643568141 0
0.136726065955062 0.004631145729144769 0
0.1032875387265663 0.009034661415453248 0
0.1073190101834659 0.009034580980450641 0
0.1272244082757663 0.008697052931721056 0
0.09702984385716362 0.009064417612865947 0
0.1390854739895825 0.008736525766290857 0
0.1364981311108542 0.009402305815461368 0
0.08433341691334031 0.008931140321280064 0
0.1309476895990988 0.009375422679046737 0
$EndNodes
$Elements
7 2262 1 2262
1 1 1 20
1 1 7
2 7 8
3 8 9
4 9 10
5 10 11
6 11 12
7 12 13
8 13 14
9 14 15
10 15 16
11 16 17
12 17 18
13 18 19
14 19 20
15 20 21
16 21 22
17 22 23
18 23 24
19 24 25
20 25 2
1 2 1 3
21 2 26
22 26 27
23 27 3
1 3 1 9
24 3 28
25 28 29
26 29 30
27 30 31
28 31 32
29 32 33
30 33 34
31 34 35
32 35 4
1 4 1 150
33 4 36
34 36 37
35 37 38
36 38 39
37 39 40
38 40 41
39 41 42
40 42 43
41 43 44
42 44 45
43 45 46
44 46 47
45 47 48
46 48 49
47 49 50
48 50 51
49 51 52
50 52 53
51 53 54
52 54 55
53 55 56
54 56 57
55 57 58
56 58 59
57 59 60
58 60 61
59 61 62
60 62 63
61 63 64
62 64 65
63 65 66
64 66 67
65 67 68
66 68 69
67 69 70
68 70 71
69 71 72
70 72 73
71 73 74
72 74 75
73 75 76
74 76 77
75 77 78
76 78 79
77 79 80
78 80 81
79 81 82
80 82 83
81 83 84
82 84 85
83 85 86
84 86 87
85 87 88
86 88 89
87 89 90
88 90 91
89 91 92
90 92 93
91 93 94
92 94 95
93 95 96
94 96 97
95 97 98
96 98 99
97 99 100
98 100 101
99 101 102
100 102 103
101 103 104
102 104 105
103 105 106
104 106 107
105 107 108
106 108 109
107 109 110
108 110 111
109 111 112
110 112 113
111 113 114
112 114 115
113 115 116
114 116 117
115 117 118
116 118 119
117 119 120
118 120 121
119 121 122
120 122 123
121 123 124
122 124 125
123 125 126
124 126 127
125 127 128
126 128 129
127 129 130
128 130 131
129 131 132
130 132 133
131 133 134
132 134 135
133 135 136
134 136 137
135 137 138
136 138 139
137 139 140
138 140 141
139 141 142
140 142 143
141 143 144
142 144 145
143 145 146
144 146 147
145 147 148
146 148 149
147 149 150
148 150 151
149 151 152
150 152 153
151 153 154
152 154 155
153 155 156
154 156 157
155 157 158
156 158 159
157 159 160
158 160 161
159 161 162
160 162 163
161 163 164
162 164 165
163 165 166
164 166 167
165 167 168
166 168 169
167 169 170
168 170 171
169 171 172
170 172 173
171 173 174
172 174 175
173 175 176
174 176 177
175 177 178
176 178 179
177 179 180
178 180 181
179 181 182
180 182 183
181 183 184
182 184 5
1 5 1 9
183 5 185
184 185 186
185 186 187
186 187 188
187 188 189
188 189 190
189 190 191
190 191 192
191 192 6
1 6 1 3
192 6 193
193 193 194
194 194 1
2 1 2 2068
195 483 278 1024
196 345 799 907
197 303 301 354
198 360 358 373
199 418 473 475
200 758 757 1036
201 196 479 480
202 315 311 390
203 356 357 1035
204 515 538 574
205 306 303 378
206 440 437 866
207 824 235 926
208 352 330 388
209 270 961 1025
210 262 875 901
211 292 289 392
212 328 388 766
213 455 462 1084
214 565 863 936
215 783 413 981
216 331 330 352
217 542 573 802
218 411 413 479
219 793 702 880
220 278 875 1024
221 468 458 960
222 495 439 930
223 577 665 811
224 454 482 960
225 437 450 866
226 17 259 1016
227 453 463 1091
228 360 373 712
229 445 669 670
230 12 264 1006
231 295 293 371
232 578 268 579
233 518 521 582
234 283 329 869
235 259 18 1042
236 284 17 1016
237 16 284 1019
238 713 711 720
239 757 856 1036
240 524 525 1030
241 624 347 777
242 260 20 954
243 462 681 682
244 564 641 834
245 268 374 890
246 289 287 951
247 286 585 895
248 274 882 1006
249 766 388 837
250 593 591 768
251 245 593 768
252 197 475 477
253 569 657 1113
254 355 356 918
255 542 543 573
256 23 258 998
257 496 690 696
258 352 887 929
259 483 422 849
260 374 375 890
261 418 419 473
262 406 407 1052
263 586 572 806
264 356 368 918
265 778 353 1041
266 291 289 292
267 437 443 450
268 373 358 888
269 551 552 1093
270 21 261 925
271 368 374 903
272 581 542 802
273 570 647 648
274 273 12 1006
275 713 720 1102
276 354 301 372
277 626 565 862
278 523 564 835
279 364 711 713
280 358 356 1035
281 743 382 1109
282 548 585 978
283 277 10 1003
284 258 282 1068
285 852 370 1045
286 382 743 852
287 501 444 1029
288 690 496 697
289 340 341 992
290 517 893 1011
291 553 576 1036
292 315 390 884
293 306 378 384
294 523 524 1030
295 235 402 926
296 605 463 606
297 264 13 1025
298 942 280 980
299 262 9 1024
300 538 760 1021
301 574 538 1021
302 364 714 1122
303 9 262 1063
304 10 263 1003
305 788 915 1096
306 715 736 1005
307 12 273 989
308 565 626 863
309 20 271 954
310 567 556 1012
311 427 428 1029
312 552 553 1036
313 479 196 481
314 534 536 936
315 597 564 834
316 462 455 1027
317 278 483 849
318 553 556 1115
319 641 564 836
320 802 573 982
321 438 930 983
322 405 415 905
323 712 364 1122
324 356 351 1097
325 715 713 717
326 654 657 857
327 234 288 398
328 462 682 683
329 265 15 826
330 261 22 846
331 258 24 282
332 446 974 1052
333 564 597 835
334 532 531 1117
335 19 260 919
336 603 791 977
337 18 267 1042
338 32 33 287
339 411 412 413
340 345 336 1070
341 19 20 260
342 12 13 264
343 16 17 284
344 17 18 259
345 14 15 265
346 21 22 261
347 10 11 263
348 23 24 258
349 736 716 1005
350 330 327 1045
351 569 558 857
352 707 790 888
353 533 534 936
354 285 16 1019
355 15 285 826
356 280 281 914
357 515 574 580
358 671 670 672
359 426 427 1029
360 468 270 1023
361 263 11 989
362 532 533 1033
363 453 455 1084
364 22 275 846
365 671 441 939
366 582 521 977
367 404 406 1052
368 436 699 965
369 451 453 1091
370 379 988 1129
371 419 418 1072
372 767 855 946
373 347 624 778
374 343 913 992
375 537 542 1100
376 561 793 880
377 479 413 480
378 475 197 485
379 917 387 1099
380 428 429 1085
381 475 473 477
382 584 583 1013
383 402 404 974
384 881 193 969
385 845 789 924
386 463 453 1084
387 310 309 917
388 303 354 968
389 267 19 919
390 536 537 1100
391 271 21 925
392 193 257 969
393 565 830 862
394 275 23 998
395 875 262 1024
396 327 326 1045
397 566 970 1016
398 464 609 1061
399 444 501 1075
400 515 516 538
401 552 551 553
402 809 371 832
403 531 532 1033
404 699 436 1112
405 363 714 1094
406 382 321 1037
407 425 426 896
408 196 480 816
409 450 609 866
410 464 607 608
411 800 1070 1080
412 683 463 1084
413 428 500 501
414 314 311 315
415 855 383 946
416 714 713 715
417 198 672 894
418 829 563 848
419 526 535 959
420 450 443 1061
421 507 511 639
422 519 517 1011
423 518 520 521
424 579 268 890
425 395 230 718
426 191 279 396
427 556 558 1012
428 421 441 1089
429 428 427 429
430 437 440 1078
431 884 347 1046
432 582 791 796
433 14 265 1083
434 830 565 935
435 418 475 476
436 320 318 1041
437 476 475 485
438 672 198 1010
439 603 540 1108
440 970 971 1016
441 564 523 1030
442 342 340 992
443 606 463 683
444 317 316 1046
445 913 343 1000
446 378 303 968
447 288 329 398
448 563 829 933
449 535 526 902
450 9 10 277
451 22 23 275
452 20 21 271
453 18 19 267
454 15 16 285
455 707 366 937
456 525 526 959
457 576 553 995
458 9 277 1024
459 522 523 1047
460 13 269 1025
461 309 307 917
462 669 445 885
463 558 579 857
464 758 576 994
465 391 1079 1099
466 540 603 977
467 948 765 1105
468 717 365 867
469 321 320 1037
470 570 648 843
471 304 303 306
472 299 298 1088
473 292 392 952
474 431 439 1044
475 549 551 1093
476 277 483 1024
477 542 581 1100
478 426 425 427
479 760 538 796
480 669 885 916
481 302 301 303
482 287 33 486
483 467 842 1060
484 542 537 543
485 281 280 1032
486 399 870 954
487 577 811 902
488 318 317 1041
489 301 299 1088
490 327 330 331
491 478 473 1089
492 613 346 887
493 536 534 537
494 293 292 1110
495 193 194 257
496 429 448 1085
497 354 372 922
498 657 569 857
499 444 885 1029
500 316 315 1046
501 885 444 916
502 547 549 1074
503 7 280 942
504 952 380 1110
505 533 532 534
506 850 868 1051
507 464 608 609
508 326 324 1103
509 581 802 1067
510 521 522 1047
511 688 395 718
512 428 501 1029
513 439 431 930
514 433 435 1114
515 336 345 907
516 357 356 1097
517 672 670 894
518 986 238 1043
519 26 27 266
520 365 717 1102
521 366 888 1035
522 778 624 808
523 351 342 913
524 556 1058 1115
525 385 384 386
526 514 515 938
527 379 833 988
528 593 245 841
529 269 13 1083
530 384 378 1034
531 478 441 996
532 463 605 831
533 324 326 327
534 518 582 943
535 516 518 943
536 336 333 1070
537 360 712 1122
538 451 452 453
539 710 373 790
540 897 471 908
541 341 340 1073
542 382 852 1103
543 485 986 1043
544 690 697 698
545 407 408 1106
546 348 338 907
547 612 613 887
548 453 454 455
549 556 567 1058
550 374 268 903
551 286 971 978
552 388 328 879
553 197 477 877
554 408 411 1106
555 458 459 1104
556 714 363 1122
557 286 895 1001
558 333 331 929
559 7 8 280
560 607 464 831
561 266 27 973
562 437 1078 1114
563 681 462 878
564 369 351 913
565 24 25 282
566 353 778 808
567 307 306 385
568 961 264 1025
569 338 348 1049
570 291 292 293
571 235 401 402
572 902 811 941
573 507 509 511
574 457 458 1104
575 467 593 842
576 296 293 1110
577 439 493 803
578 495 438 1022
579 777 347 883
580 191 192 279
581 448 429 964
582 882 273 1006
583 831 464 1091
584 269 586 806
585 477 473 478
586 573 543 933
587 402 403 404
588 658 654 857
589 380 932 1110
590 441 478 1089
591 443 451 1061
592 803 804 964
593 347 778 1046
594 868 446 1051
595 423 425 896
596 591 593 1128
597 359 358 360
598 413 414 981
599 630 931 958
600 351 369 1054
601 391 395 688
602 331 352 929
603 346 613 1080
604 374 363 1094
605 493 439 495
606 835 540 1047
607 272 389 925
608 472 592 997
609 863 533 936
610 431 433 930
611 329 283 898
612 855 743 1109
613 883 347 884
614 419 421 1089
615 658 857 999
616 282 25 921
617 483 277 1004
618 352 388 879
619 11 12 989
620 971 286 1019
621 338 336 907
622 318 320 321
623 580 574 966
624 407 406 408
625 396 279 397
626 932 379 1129
627 512 514 938
628 278 849 853
629 480 413 783
630 390 311 1079
631 397 969 980
632 455 456 1026
633 28 29 393
634 445 670 671
635 682 606 683
636 316 317 318
637 26 266 993
638 525 524 526
639 441 421 939
640 721 574 1021
641 295 371 809
642 840 383 1037
643 339 338 1073
644 317 778 1041
645 523 522 524
646 609 450 1061
647 288 287 289
648 711 364 712
649 465 466 1028
650 931 575 958
651 306 384 385
652 8 9 1063
653 343 794 795
654 375 374 1094
655 609 608 810
656 459 465 1028
657 467 592 1128
658 456 457 1026
659 791 582 977
660 314 315 316
661 468 960 961
662 385 386 387
663 300 922 987
664 411 479 940
665 27 889 973
666 437 442 443
667 192 6 881
668 326 852 1045
669 585 286 978
670 521 520 522
671 297 296 1129
672 3 28 889
673 29 30 236
674 815 472 897
675 324 321 1103
676 511 512 904
677 832 308 892
678 4 36 294
679 298 297 1129
680 633 955 1092
681 651 656 661
682 543 545 1055
683 716 736 817
684 482 274 960
685 863 539 1033
686 413 412 414
687 409 481 1053
688 321 382 1103
689 429 430 1044
690 651 653 656
691 411 408 412
692 647 570 1064
693 373 710 712
694 37 232 487
695 790 373 888
696 856 552 1036
697 897 472 1098
698 391 900 1079
699 6 193 881
700 870 260 954
701 988 298 1129
702 575 641 836
703 184 5 797
704 1010 996 1131
705 466 469 1098
706 895 541 1001
707 92 649 661
708 219 786 787
709 91 92 661
710 649 651 661
711 588 589 590
712 140 141 589
713 599 600 601
714 141 206 589
715 167 251 497
716 113 213 614
717 155 247 610
718 118 119 662
719 599 243 600
720 628 662 663
721 490 497 498
722 166 167 497
723 154 155 610
724 239 140 589
725 243 128 600
726 165 200 488
727 497 251 498
728 621 344 622
729 616 344 621
730 115 242 595
731 625 212 627
732 627 212 628
733 488 200 489
734 606 682 684
735 685 686 687
736 737 693 756
737 587 239 588
738 207 138 503
739 48 49 685
740 214 110 615
741 207 503 504
742 589 206 590
743 503 239 587
744 241 152 604
745 210 126 596
746 212 118 662
747 112 113 614
748 124 125 640
749 210 596 597
750 206 142 768
751 241 604 605
752 611 226 612
753 117 212 625
754 676 202 677
755 240 124 640
756 204 150 684
757 116 117 625
758 151 152 241
759 177 178 197
760 119 256 662
761 138 139 503
762 215 693 737
763 49 229 685
764 164 165 488
765 115 116 242
766 179 180 238
767 200 166 497
768 674 202 676
769 110 111 615
770 125 126 210
771 224 618 770
772 111 112 244
773 682 204 684
774 690 689 696
775 488 489 491
776 150 151 684
777 111 244 615
778 128 129 600
779 141 142 206
780 203 154 610
781 169 199 636
782 689 201 696
783 153 154 203
784 52 53 502
785 149 204 679
786 244 112 614
787 153 203 604
788 213 114 595
789 254 492 694
790 242 116 625
791 694 492 695
792 127 243 596
793 125 210 640
794 148 149 679
795 634 205 722
796 167 168 251
797 679 204 681
798 622 724 739
799 61 226 611
800 114 115 595
801 596 243 598
802 604 203 607
803 139 239 503
804 681 204 682
805 151 241 684
806 113 114 213
807 240 640 641
808 726 218 727
809 168 169 636
810 157 158 202
811 144 145 632
812 69 70 224
813 96 97 642
814 127 128 243
815 607 203 608
816 622 344 724
817 61 62 226
818 39 300 594
819 83 84 365
820 636 199 637
821 47 48 312
822 170 171 666
823 628 212 662
824 247 156 674
825 38 39 594
826 51 52 319
827 163 164 254
828 139 140 239
829 131 132 249
830 122 123 629
831 137 138 207
832 498 251 499
833 685 229 686
834 71 344 616
835 211 631 728
836 109 110 214
837 137 207 635
838 598 243 599
839 591 206 768
840 499 636 637
841 504 503 587
842 183 184 409
843 129 130 209
844 70 71 616
845 53 228 502
846 588 239 589
847 605 604 607
848 244 614 802
849 245 144 632
850 649 218 650
851 489 200 490
852 60 61 611
853 165 166 200
854 251 168 636
855 677 202 723
856 568 642 643
857 135 136 246
858 242 625 626
859 152 153 604
860 709 221 719
861 704 221 708
862 43 44 305
863 770 618 776
864 207 505 635
865 247 674 675
866 123 240 629
867 105 106 215
868 163 254 694
869 241 606 684
870 254 488 491
871 173 174 198
872 597 596 598
873 254 164 488
874 568 96 642
875 708 221 709
876 126 127 596
877 638 199 666
878 109 214 738
879 638 666 667
880 207 504 505
881 155 156 247
882 80 81 704
883 161 201 689
884 201 694 695
885 617 616 621
886 92 93 649
887 201 695 696
888 93 94 218
889 39 40 300
890 241 605 606
891 709 719 720
892 131 249 673
893 312 687 688
894 499 251 636
895 361 731 753
896 156 157 674
897 81 221 704
898 502 228 785
899 199 170 666
900 649 650 651
901 215 691 692
902 93 218 649
903 637 199 638
904 79 80 367
905 254 491 492
906 590 206 591
907 490 200 497
908 312 685 687
909 626 625 627
910 208 134 678
911 215 692 693
912 161 162 201
913 662 256 663
914 107 252 691
915 361 729 730
916 644 726 727
917 147 148 255
918 106 107 691
919 129 209 600
920 554 737 756
921 643 642 648
922 312 48 685
923 675 674 676
924 211 630 631
925 361 730 731
926 175 248 703
927 218 94 727
928 201 162 694
929 37 38 232
930 600 209 601
931 367 706 741
932 246 136 635
933 601 209 602
934 181 182 196
935 602 209 673
936 119 120 256
937 608 203 610
938 666 253 667
939 160 161 689
940 205 146 722
941 173 198 725
942 312 688 718
943 568 643 644
944 255 148 679
945 634 722 765
946 367 704 705
947 157 202 674
948 367 705 706
949 171 253 666
950 175 176 248
951 215 106 691
952 211 629 630
953 162 163 694
954 198 174 703
955 121 122 211
956 635 505 639
957 650 218 726
958 97 98 217
959 50 51 623
960 667 253 668
961 745 560 746
962 642 217 648
963 174 175 703
964 136 137 635
965 255 679 680
966 612 226 613
967 169 170 199
968 705 704 708
969 45 46 230
970 232 38 594
971 250 689 690
972 75 76 361
973 145 146 205
974 221 82 719
975 69 224 770
976 149 150 204
977 680 679 681
978 319 52 502
979 633 205 634
980 692 691 700
981 211 122 629
982 746 560 761
983 691 252 700
984 632 205 633
985 623 319 624
986 88 89 762
987 250 160 689
988 95 96 568
989 719 365 720
990 209 130 673
991 700 252 701
992 117 118 212
993 142 143 768
994 123 124 240
995 133 134 208
996 159 160 250
997 322 742 743
998 143 144 245
999 81 82 221
1000 171 172 253
1001 224 616 617
1002 94 95 727
1003 107 108 252
1004 59 60 328
1005 748 349 749
1006 246 635 639
1007 83 365 719
1008 763 762 764
1009 82 83 719
1010 121 211 728
1011 145 205 632
1012 367 80 704
1013 159 250 723
1014 74 75 753
1015 755 554 756
1016 71 72 344
1017 66 67 748
1018 249 132 721
1019 255 680 765
1020 67 349 748
1021 95 568 727
1022 133 208 721
1023 224 617 618
1024 172 173 725
1025 97 217 642
1026 328 60 611
1027 75 361 753
1028 130 131 673
1029 229 50 623
1030 668 253 725
1031 120 121 728
1032 158 159 723
1033 78 79 741
1034 85 86 220
1035 202 158 723
1036 216 754 782
1037 108 109 738
1038 754 755 782
1039 230 46 718
1040 132 133 721
1041 673 249 760
1042 79 367 741
1043 322 56 742
1044 98 99 744
1045 361 76 729
1046 568 644 727
1047 253 172 725
1048 72 73 724
1049 51 319 623
1050 256 120 728
1051 751 752 780
1052 77 78 222
1053 76 77 729
1054 43 305 750
1055 49 50 229
1056 62 63 747
1057 57 58 227
1058 105 215 737
1059 53 54 228
1060 55 56 322
1061 63 64 334
1062 226 62 747
1063 73 74 223
1064 87 88 377
1065 89 90 219
1066 101 102 216
1067 103 104 554
1068 99 100 560
1069 65 66 225
1070 41 42 231
1071 56 57 742
1072 67 68 349
1073 224 70 616
1074 753 731 774
1075 701 252 738
1076 744 560 745
1077 762 219 764
1078 722 255 765
1079 134 135 678
1080 217 98 744
1081 252 108 738
1082 663 256 775
1083 143 245 768
1084 146 147 722
1085 728 631 775
1086 751 225 752
1087 222 78 741
1088 730 729 771
1089 63 334 747
1090 47 312 718
1091 256 728 775
1092 749 349 776
1093 613 226 747
1094 73 223 724
1095 104 105 737
1096 602 673 760
1097 99 560 744
1098 377 762 763
1099 46 47 718
1100 89 219 762
1101 135 246 678
1102 377 88 762
1103 344 72 724
1104 54 55 767
1105 147 255 722
1106 87 377 735
1107 86 87 735
1108 724 223 739
1109 220 735 736
1110 741 706 769
1111 223 74 753
1112 554 104 737
1113 560 100 761
1114 754 554 755
1115 349 770 776
1116 739 223 774
1117 77 222 729
1118 55 322 767
1119 300 40 759
1120 729 222 771
1121 216 102 754
1122 42 43 750
1123 334 751 780
1124 40 41 759
1125 752 225 772
1126 223 753 774
1127 225 66 748
1128 222 769 771
1129 102 103 754
1130 686 229 777
1131 100 101 761
1132 220 86 735
1133 65 225 751
1134 623 624 777
1135 41 231 759
1136 229 623 777
1137 57 227 742
1138 64 65 751
1139 222 741 769
1140 231 42 750
1141 227 58 766
1142 228 54 767
1143 334 64 751
1144 103 554 754
1145 748 749 772
1146 59 328 766
1147 68 69 770
1148 58 59 766
1149 101 216 761
1150 746 761 781
1151 781 216 782
1152 779 334 780
1153 349 68 770
1154 225 748 772
1155 613 747 779
1156 747 334 779
1157 761 216 781
1158 27 3 889
1159 878 462 1027
1160 852 326 1103
1161 461 948 1105
1162 308 832 1009
1163 469 471 1098
1164 575 836 959
1165 45 230 784
1166 305 44 784
1167 608 610 810
1168 247 675 810
1169 540 977 1047
1170 1070 346 1080
1171 736 715 976
1172 574 721 966
1173 36 37 487
1174 553 555 556
1175 786 656 787
1176 219 90 786
1177 91 661 786
1178 661 656 786
1179 44 45 784
1180 624 319 808
1181 502 785 808
1182 914 397 980
1183 610 247 810
1184 25 2 993
1185 377 763 817
1186 736 735 817
1187 641 575 931
1188 639 511 876
1189 605 607 831
1190 350 342 351
1191 272 788 1096
1192 545 546 1057
1193 867 220 976
1194 90 91 786
1195 764 219 787
1196 319 502 808
1197 641 640 834
1198 210 597 834
1199 447 1004 1086
1200 556 557 558
1201 562 1111 1118
1202 735 377 817
1203 190 191 396
1204 29 236 393
1205 311 310 1079
1206 492 494 695
1207 268 578 1014
1208 558 578 579
1209 711 709 720
1210 733 730 771
1211 644 646 726
1212 665 663 775
1213 355 351 356
1214 501 499 637
1215 449 1051 1106
1216 238 180 816
1217 181 196 816
1218 436 1078 1112
1219 261 845 924
1220 562 702 1111
1221 783 476 1043
1222 510 504 587
1223 731 734 774
1224 647 643 648
1225 505 507 639
1226 648 217 843
1227 744 745 843
1228 464 1061 1091
1229 785 353 808
1230 1034 305 1130
1231 30 31 398
1232 618 620 776
1233 755 758 782
1234 189 237 400
1235 257 942 980
1236 690 698 1065
1237 698 677 1065
1238 362 360 1122
1239 505 504 506
1240 763 764 871
1241 706 705 707
1242 599 601 603
1243 687 686 814
1244 667 668 669
1245 617 621 794
1246 746 781 860
1247 755 756 757
1248 489 490 804
1249 780 752 798
1250 692 700 702
1251 675 676 838
1252 779 780 800
1253 491 489 803
1254 701 738 848
1255 908 471 909
1256 756 693 792
1257 772 749 801
1258 498 499 500
1259 628 663 664
1260 618 617 619
1261 622 739 740
1262 644 643 645
1263 731 730 732
1264 651 650 652
1265 590 591 592
1266 602 760 796
1267 409 184 797
1268 708 709 710
1269 743 851 852
1270 395 387 945
1271 640 210 834
1272 705 708 790
1273 601 602 791
1274 189 190 237
1275 500 448 1081
1276 621 622 795
1277 745 746 859
1278 665 577 990
1279 245 632 841
1280 752 772 773
1281 693 692 793
1282 492 491 493
1283 676 677 839
1284 612 352 879
1285 902 526 1077
1286 294 36 487
1287 644 645 646
1288 732 730 733
1289 651 652 653
1290 664 663 665
1291 710 709 711
1292 500 499 501
1293 974 404 1052
1294 290 289 291
1295 309 310 311
1296 421 423 939
1297 539 991 1033
1298 778 317 1046
1299 492 493 494
1300 659 660 1120
1301 506 504 510
1302 581 935 1100
1303 505 506 507
1304 742 227 851
1305 481 196 1053
1306 227 766 1132
1307 638 916 1075
1308 731 732 734
1309 645 643 647
1310 669 668 670
1311 363 362 1122
1312 618 619 620
1313 755 757 758
1314 767 322 855
1315 180 181 816
1316 352 612 887
1317 515 514 516
1318 787 656 805
1319 530 532 1117
1320 749 776 820
1321 739 774 818
1322 31 32 234
1323 242 626 862
1324 364 713 714
1325 274 482 882
1326 481 409 1050
1327 587 588 815
1328 817 763 872
1329 686 777 883
1330 771 769 813
1331 650 726 812
1332 217 744 843
1333 775 631 811
1334 1 7 942
1335 523 835 1047
1336 810 675 865
1337 922 759 967
1338 656 653 805
1339 888 358 1035
1340 310 917 1099
1341 930 433 983
1342 473 419 1089
1343 85 220 867
1344 365 84 867
1345 500 428 1085
1346 266 921 993
1347 246 639 876
1348 366 707 888
1349 780 798 800
1350 803 489 804
1351 757 756 792
1352 177 197 877
1353 248 176 877
1354 619 617 794
1355 214 615 829
1356 213 595 830
1357 386 384 1130
1358 4 294 822
1359 859 559 963
1360 819 913 1000
1361 707 705 790
1362 214 829 848
1363 603 601 791
1364 968 967 1101
1365 905 415 1020
1366 717 867 976
1367 417 419 1072
1368 582 796 943
1369 13 14 1083
1370 794 621 795
1371 932 296 1110
1372 859 746 860
1373 558 569 1012
1374 738 214 848
1375 766 837 1132
1376 431 432 433
1377 293 296 297
1378 708 710 790
1379 791 602 796
1380 832 371 1008
1381 752 773 798
1382 692 702 793
1383 622 740 795
1384 801 749 820
1385 773 772 801
1386 740 739 818
1387 792 693 793
1388 493 491 803
1389 230 395 945
1390 838 676 839
1391 859 860 995
1392 843 745 963
1393 638 667 916
1394 433 434 435
1395 387 386 945
1396 430 431 1044
1397 949 460 955
1398 922 372 987
1399 232 594 833
1400 750 305 1034
1401 5 195 797
1402 725 198 894
1403 688 687 900
1404 652 650 812
1405 236 30 398
1406 340 339 1073
1407 1028 467 1060
1408 402 401 403
1409 328 611 879
1410 34 35 233
1411 185 186 823
1412 35 4 822
1413 5 185 195
1414 508 908 909
1415 632 633 841
1416 940 449 1106
1417 485 197 986
1418 187 188 235
1419 265 584 1013
1420 680 681 878
1421 280 914 980
1422 441 671 1131
1423 533 863 1033
1424 447 474 1038
1425 543 544 545
1426 830 595 862
1427 414 416 1072
1428 800 345 1070
1429 774 734 818
1430 733 771 813
1431 871 764 928
1432 726 646 812
1433 593 467 1128
1434 592 472 1107
1435 332 331 333
1436 706 707 937
1437 861 380 952
1438 776 620 820
1439 665 775 811
1440 424 483 1004
1441 510 587 815
1442 784 230 945
1443 633 634 955
1444 814 390 900
1445 296 932 1129
1446 655 659 1120
1447 386 784 945
1448 538 516 943
1449 409 797 850
1450 630 629 931
1451 240 641 931
1452 188 189 400
1453 393 236 394
1454 743 742 851
1455 528 529 1117
1456 547 548 549
1457 238 816 934
1458 335 333 336
1459 670 668 894
1460 863 626 1126
1461 304 306 307
1462 354 922 967
1463 228 767 946
1464 813 769 937
1465 787 805 928
1466 715 717 976
1467 672 1010 1131
1468 337 336 338
1469 549 550 551
1470 671 672 1131
1471 535 902 941
1472 449 850 1051
1473 391 688 900
1474 913 342 992
1475 302 303 304
1476 322 743 855
1477 297 298 299
1478 244 802 982
1479 299 301 302
1480 195 823 825
1481 613 779 1080
1482 197 178 986
1483 179 238 986
1484 811 631 941
1485 404 405 406
1486 716 817 872
1487 609 810 865
1488 720 365 1102
1489 546 547 1057
1490 511 509 512
1491 276 809 832
1492 595 242 862
1493 835 597 1125
1494 249 721 1021
1495 1078 440 1112
1496 183 409 1053
1497 196 182 1053
1498 388 330 1087
1499 677 723 1065
1500 250 690 1065
1501 802 614 1067
1502 860 781 994
1503 353 785 840
1504 890 375 1119
1505 594 300 987
1506 886 996 1010
1507 851 370 852
1508 376 714 1005
1509 765 680 1105
1510 576 758 1036
1511 814 686 883
1512 611 612 879
1513 769 706 937
1514 1004 1003 1086
1515 933 543 1055
1516 593 841 842
1517 265 586 1083
1518 307 385 917
1519 714 715 1005
1520 597 598 1125
1521 447 424 1004
1522 626 627 1126
1523 198 703 1010
1524 764 787 928
1525 1079 310 1099
1526 696 695 1048
1527 702 562 880
1528 816 480 934
1529 628 664 1018
1530 821 912 1049
1531 472 997 1098
1532 1068 282 1095
1533 870 355 918
1534 570 963 1058
1535 194 1 942
1536 257 194 942
1537 451 443 452
1538 368 903 1071
1539 292 952 1110
1540 782 758 994
1541 84 85 867
1542 966 208 985
1543 763 871 872
1544 837 388 1087
1545 389 271 925
1546 804 490 1081
1547 498 500 1081
1548 561 792 793
1549 698 697 699
1550 677 698 1017
1551 599 603 1108
1552 631 630 941
1553 813 366 891
1554 702 700 1111
1555 675 838 865
1556 33 34 486
1557 590 592 1107
1558 678 246 876
1559 384 1034 1130
1560 232 833 947
1561 833 379 947
1562 176 177 877
1563 870 399 972
1564 526 528 1077
1565 934 783 1043
1566 419 420 421
1567 453 452 454
1568 840 785 946
1569 383 840 946
1570 455 454 456
1571 457 456 458
1572 459 458 465
1573 466 465 469
1574 581 830 935
1575 570 843 963
1576 619 794 827
1577 438 495 930
1578 896 445 939
1579 479 481 940
1580 717 713 1102
1581 573 829 982
1582 829 615 982
1583 421 422 423
1584 501 637 1075
1585 815 588 1107
1586 233 35 822
1587 195 185 823
1588 186 187 824
1589 423 424 425
1590 850 797 868
1591 300 759 922
1592 910 909 984
1593 592 467 997
1594 195 825 868
1595 1005 716 1039
1596 664 991 1018
1597 366 813 937
1598 830 581 1067
1599 213 830 1067
1600 356 358 359
1601 31 234 398
1602 825 446 868
1603 418 476 981
1604 963 559 1058
1605 955 460 1092
1606 703 248 886
1607 353 840 1041
1608 396 397 858
1609 822 294 861
1610 315 884 1046
1611 667 669 916
1612 893 910 1011
1613 439 803 964
1614 387 395 1099
1615 480 783 934
1616 284 971 1019
1617 237 396 858
1618 687 814 900
1619 323 321 324
1620 932 923 947
1621 668 725 894
1622 900 390 1079
1623 398 329 956
1624 234 32 287
1625 411 940 1106
1626 440 838 839
1627 797 195 868
1628 526 527 528
1629 394 236 956
1630 653 655 805
1631 657 652 812
1632 592 591 1128
1633 496 696 1048
1634 435 437 1114
1635 991 990 1116
1636 359 360 362
1637 477 478 1082
1638 362 363 374
1639 580 966 985
1640 280 8 1063
1641 263 828 1076
1642 1056 562 1118
1643 794 343 827
1644 634 765 948
1645 288 289 290
1646 380 861 923
1647 861 294 923
1648 781 782 994
1649 394 899 973
1650 847 283 869
1651 378 968 1101
1652 372 301 1088
1653 395 391 1099
1654 437 435 442
1655 858 415 1066
1656 320 840 1037
1657 208 678 985
1658 283 1068 1095
1659 828 263 989
1660 798 345 800
1661 844 789 845
1662 34 233 486
1663 305 784 1130
1664 187 235 824
1665 923 487 947
1666 757 792 856
1667 584 265 826
1668 991 531 1033
1669 784 386 1130
1670 1076 474 1086
1671 904 512 938
1672 271 389 399
1673 965 496 1022
1674 971 284 1016
1675 248 877 1082
1676 476 783 981
1677 627 628 1018
1678 553 551 555
1679 918 368 1071
1680 885 426 1029
1681 583 854 1013
1682 572 519 1011
1683 340 342 350
1684 721 208 966
1685 529 530 1117
1686 857 579 999
1687 313 311 314
1688 629 240 931
1689 404 403 405
1690 294 487 923
1691 436 965 983
1692 516 517 518
1693 279 881 969
1694 487 232 947
1695 948 949 955
1696 584 826 927
1697 416 417 1072
1698 953 375 1040
1699 822 861 944
1700 518 519 520
1701 470 270 806
1702 233 822 944
1703 237 858 1066
1704 460 842 1092
1705 1111 701 1118
1706 556 555 557
1707 389 272 1007
1708 263 1076 1086
1709 785 228 946
1710 350 351 355
1711 515 580 938
1712 845 261 846
1713 916 444 1075
1714 558 557 578
1715 929 346 1070
1716 476 485 1043
1717 270 470 1123
1718 470 910 984
1719 429 427 430
1720 531 991 1116
1721 443 442 482
1722 271 399 954
1723 559 859 995
1724 392 289 951
1725 472 815 1107
1726 878 1027 1105
1727 880 562 1057
1728 759 231 967
1729 470 806 1011
1730 836 525 959
1731 745 859 963
1732 220 736 976
1733 490 498 1081
1734 494 493 495
1735 578 557 1015
1736 645 647 807
1737 615 244 982
1738 262 901 1032
1739 710 711 712
1740 2 26 993
1741 653 652 654
1742 732 733 864
1743 507 506 508
1744 178 179 986
1745 637 638 1075
1746 460 949 1104
1747 1051 407 1106
1748 543 537 544
1749 308 307 309
1750 494 495 1022
1751 327 331 332
1752 829 573 933
1753 806 270 1025
1754 512 513 514
1755 588 590 1107
1756 448 500 1085
1757 654 652 657
1758 823 186 824
1759 700 701 1111
1760 329 898 956
1761 431 430 432
1762 740 818 819
1763 279 192 881
1764 534 532 895
1765 598 599 1108
1766 433 432 434
1767 385 387 917
1768 886 478 996
1769 448 804 1081
1770 876 511 904
1771 827 341 912
1772 653 654 655
1773 798 773 799
1774 507 508 509
1775 967 231 1101
1776 561 880 1074
1777 935 536 1100
1778 410 405 905
1779 579 890 999
1780 760 249 1021
1781 446 825 974
1782 733 813 891
1783 295 809 847
1784 825 926 974
1785 532 530 541
1786 697 496 965
1787 825 823 926
1788 390 814 884
1789 910 470 1011
1790 273 882 1059
1791 510 815 897
1792 545 544 546
1793 576 860 994
1794 820 620 821
1795 660 871 928
1796 620 619 912
1797 332 333 335
1798 586 269 1083
1799 182 183 1053
1800 779 800 1080
1801 547 546 548
1802 549 548 550
1803 698 699 1017
1804 335 336 337
1805 695 494 1048
1806 678 876 985
1807 337 338 339
1808 723 250 1065
1809 345 798 799
1810 614 213 1067
1811 819 369 913
1812 28 393 889
1813 898 394 956
1814 701 848 1118
1815 435 434 484
1816 969 257 980
1817 851 227 1132
1818 839 677 1017
1819 734 732 911
1820 506 510 908
1821 419 417 420
1822 655 658 659
1823 231 750 1101
1824 944 861 952
1825 634 948 955
1826 912 341 1049
1827 792 561 856
1828 814 883 884
1829 773 801 906
1830 877 477 1082
1831 540 835 1125
1832 462 683 1084
1833 351 1054 1097
1834 886 248 1082
1835 478 886 1082
1836 840 320 1041
1837 318 321 323
1838 872 871 873
1839 850 449 1050
1840 409 850 1050
1841 526 524 527
1842 586 265 1013
1843 664 665 990
1844 291 293 295
1845 421 420 422
1846 838 440 866
1847 423 422 424
1848 833 594 987
1849 314 316 844
1850 899 266 973
1851 571 519 572
1852 865 838 866
1853 1003 263 1086
1854 406 405 410
1855 1078 436 1114
1856 425 424 447
1857 474 447 1086
1858 557 566 1015
1859 522 520 854
1860 313 325 381
1861 876 904 985
1862 290 291 869
1863 555 551 970
1864 842 460 1060
1865 408 406 874
1866 471 897 1098
1867 539 863 1126
1868 660 659 953
1869 871 660 873
1870 849 416 853
1871 237 190 396
1872 414 412 416
1873 417 416 849
1874 295 847 869
1875 425 447 1038
1876 323 324 788
1877 508 909 1031
1878 445 671 939
1879 837 370 1132
1880 528 527 529
1881 379 932 947
1882 845 846 950
1883 680 878 1105
1884 807 647 1064
1885 423 896 939
1886 991 539 1018
1887 370 837 1087
1888 234 287 288
1889 567 807 1064
1890 397 279 969
1891 646 645 1062
1892 796 538 943
1893 833 987 988
1894 987 372 988
1895 415 858 1020
1896 935 565 936
1897 309 311 313
1898 941 630 958
1899 394 898 899
1900 832 892 1121
1901 1027 461 1105
1902 516 514 517
1903 287 486 951
1904 529 527 583
1905 383 855 1109
1906 482 442 882
1907 370 851 1132
1908 323 788 789
1909 400 237 1066
1910 809 276 979
1911 260 870 918
1912 842 841 1092
1913 403 401 415
1914 424 422 483
1915 846 275 950
1916 806 572 1011
1917 393 394 973
1918 304 307 308
1919 484 434 828
1920 313 314 325
1921 512 509 513
1922 236 398 956
1923 297 299 371
1924 518 517 519
1925 520 519 571
1926 841 633 1092
1927 795 740 1000
1928 471 469 984
1929 875 410 901
1930 1062 569 1113
1931 376 1005 1039
1932 452 443 482
1933 259 1015 1016
1934 313 381 892
1935 530 529 1090
1936 885 445 896
1937 826 285 927
1938 514 513 893
1939 337 339 389
1940 465 458 468
1941 278 853 875
1942 456 454 960
1943 887 346 929
1944 948 461 949
1945 546 544 585
1946 853 874 875
1947 288 290 329
1948 551 550 970
1949 818 734 1069
1950 580 904 938
1951 860 576 995
1952 389 339 399
1953 889 393 973
1954 380 923 932
1955 432 430 474
1956 359 362 368
1957 442 435 484
1958 927 541 1090
1959 788 324 915
1960 350 355 870
1961 308 309 892
1962 557 555 566
1963 919 918 1071
1964 821 348 1127
1965 996 441 1131
1966 847 809 979
1967 655 654 658
1968 995 553 1115
1969 343 795 1000
1970 235 400 401
1971 238 934 1043
1972 977 521 1047
1973 291 295 869
1974 420 417 849
1975 534 895 920
1976 529 583 584
1977 659 658 999
1978 532 541 895
1979 571 572 586
1980 541 927 1001
1981 788 272 924
1982 338 1049 1073
1983 427 425 1038
1984 828 989 1059
1985 619 827 912
1986 357 864 891
1987 848 563 1118
1988 235 188 400
1989 703 886 1010
1990 298 988 1088
1991 1051 446 1052
1992 853 416 975
1993 901 410 905
1994 895 585 920
1995 375 953 1119
1996 801 820 1127
1997 339 340 972
1998 233 944 1002
1999 904 580 985
2000 324 327 915
2001 406 410 874
2002 983 433 1114
2003 537 534 920
2004 260 918 919
2005 970 550 971
2006 804 448 964
2007 266 899 921
2008 958 575 959
2009 277 1003 1004
2010 873 660 953
2011 910 513 1031
2012 891 366 1035
2013 899 282 921
2014 369 819 1069
2015 1015 566 1016
2016 449 940 1050
2017 940 481 1050
2018 463 831 1091
2019 325 844 845
2020 874 410 875
2021 486 233 1002
2022 854 571 1013
2023 552 856 1093
2024 858 397 914
2025 903 268 1042
2026 325 314 844
2027 520 571 854
2028 836 564 1030
2029 864 733 891
2030 399 339 972
2031 547 880 1057
2032 893 513 910
2033 550 548 978
2034 354 967 968
2035 340 350 972
2036 583 527 962
2037 928 805 1120
2038 979 276 998
2039 392 944 952
2040 821 620 912
2041 323 789 957
2042 960 274 961
2043 269 806 1025
2044 510 897 908
2045 627 1018 1126
2046 909 471 984
2047 823 824 926
2048 807 569 1062
2049 267 919 1071
2050 283 847 1068
2051 1077 528 1116
2052 921 25 993
2053 316 318 957
2054 535 941 958
2055 282 899 1095
2056 524 522 962
2057 812 646 1113
2058 807 567 1012
2059 335 337 1007
2060 566 555 970
2061 348 821 1049
2062 442 484 882
2063 508 506 908
2064 430 427 1038
2065 732 864 911
2066 333 929 1070
2067 716 872 1039
2068 924 272 925
2069 517 514 893
2070 1061 451 1091
2071 341 827 992
2072 327 332 915
2073 799 773 906
2074 309 313 892
2075 570 1058 1064
2076 412 408 975
2077 1037 383 1109
2078 299 302 1008
2079 789 788 924
2080 544 537 920
2081 438 965 1022
2082 799 906 907
2083 529 584 1090
2084 740 819 1000
2085 951 486 1002
2086 909 910 1031
2087 858 914 1020
2088 645 807 1062
2089 392 951 1002
2090 494 1022 1048
2091 844 316 957
2092 261 924 925
2093 734 911 1069
2094 381 950 1124
2095 911 864 1054
2096 964 429 1044
2097 541 530 1090
2098 961 274 1006
2099 522 854 962
2100 949 461 1026
2101 988 372 1088
2102 509 508 1031
2103 1026 461 1027
2104 302 304 1009
2105 997 467 1028
2106 847 979 1068
2107 337 389 1007
2108 828 434 1076
2109 880 547 1074
2110 350 870 972
2111 1014 578 1015
2112 286 1001 1019
2113 906 801 1127
2114 381 325 950
2115 789 844 957
2116 426 885 896
2117 1014 259 1042
2118 268 1014 1042
2119 1055 545 1056
2120 376 1039 1040
2121 926 402 974
2122 854 583 962
2123 469 465 1023
2124 569 807 1012
2125 264 961 1006
2126 864 357 1054
2127 1022 496 1048
2128 418 981 1072
2129 664 990 991
2130 819 818 1069
2131 1045 370 1087
2132 536 935 936
2133 415 401 1066
2134 997 466 1098
2135 408 874 975
2136 571 586 1013
2137 659 999 1119
2138 820 821 1127
2139 585 544 920
2140 535 958 959
2141 646 1062 1113
2142 827 343 992
2143 440 839 1112
2144 1039 873 1040
2145 971 550 978
2146 950 275 1124
2147 1007 272 1096
2148 276 1121 1124
2149 901 281 1032
2150 989 273 1059
2151 882 484 1059
2152 513 509 1031
2153 805 655 1120
2154 474 430 1038
2155 318 323 957
2156 856 561 1093
2157 1116 528 1117
2158 898 283 1095
2159 914 281 1020
2160 584 927 1090
2161 527 524 962
2162 563 933 1055
2163 598 1108 1125
2164 484 828 1059
2165 459 1028 1060
2166 873 953 1040
2167 258 979 998
2168 927 285 1001
2169 407 1051 1052
2170 874 853 975
2171 525 836 1030
2172 944 392 1002
2173 1032 280 1063
2174 416 412 975
2175 1056 545 1057
2176 325 845 950
2177 906 348 907
2178 369 911 1054
2179 371 299 1008
2180 401 400 1066
2181 1060 460 1104
2182 1001 285 1019
2183 1034 378 1101
2184 750 1034 1101
2185 998 276 1124
2186 281 905 1020
2187 872 873 1039
2188 899 898 1095
2189 561 1074 1093
2190 376 1040 1094
2191 304 308 1009
2192 562 1056 1057
2193 832 1008 1009
2194 357 891 1035
2195 465 468 1023
2196 965 438 983
2197 1018 539 1126
2198 382 1037 1109
2199 657 812 1113
2200 281 901 905
2201 470 984 1123
2202 439 964 1044
2203 990 577 1116
2204 949 457 1104
2205 999 890 1119
2206 434 432 1076
2207 459 1060 1104
2208 276 832 1121
2209 559 995 1115
2210 911 369 1069
2211 335 1007 1096
2212 577 902 1077
2213 332 335 1096
2214 1008 302 1009
2215 1040 375 1094
2216 432 474 1076
2217 531 1116 1117
2218 839 1017 1112
2219 330 1045 1087
2220 903 267 1071
2221 1054 357 1097
2222 259 1014 1015
2223 455 1026 1027
2224 1108 540 1125
2225 1017 699 1112
2226 1049 341 1073
2227 469 1023 1123
2228 660 928 1120
2229 436 983 1114
2230 563 1056 1118
2231 466 997 1028
2232 457 949 1026
2233 1121 381 1124
2234 267 903 1042
2235 262 1032 1063
2236 953 659 1119
2237 915 332 1096
2238 1023 270 1123
2239 984 469 1123
2240 563 1055 1056
2241 892 381 1121
2242 1058 567 1064
2243 979 258 1068
2244 348 906 1127
2245 981 414 1072
2246 577 1077 1116
2247 1074 549 1093
2248 275 998 1124
2249 270 468 961
2250 329 290 869
2251 293 297 371
2252 356 359 368
2253 368 362 374
2254 714 376 1094
2255 405 403 415
2256 422 420 849
2257 454 452 482
2258 458 456 960
2259 548 546 585
2260 1058 559 1115
2261 609 865 866
2262 699 697 965
$EndElements
